<svg xmlns="http://www.w3.org/2000/svg" xmlns:xlink="http://www.w3.org/1999/xlink" width="512" zoomAndPan="magnify" viewBox="0 0 384 383.999986" height="512" preserveAspectRatio="xMidYMid meet" version="1.0"><defs><g/><clipPath id="8331e663b1"><path d="M 49 50.335938 L 361 50.335938 L 361 289 L 49 289 Z M 49 50.335938 " clip-rule="nonzero"/></clipPath></defs><g fill="#000000" fill-opacity="1"><g transform="translate(169.748432, 197.624984)"><g><path d="M 4.4375 3.65625 C 3.082031 3.65625 2.09375 3.425781 1.46875 2.96875 C 0.84375 2.519531 0.53125 1.921875 0.53125 1.171875 C 0.53125 0.691406 0.675781 0.304688 0.96875 0.015625 C 1.257812 -0.273438 1.679688 -0.484375 2.234375 -0.609375 L 2.234375 -0.765625 C 1.972656 -0.921875 1.773438 -1.097656 1.640625 -1.296875 C 1.503906 -1.503906 1.4375 -1.75 1.4375 -2.03125 C 1.4375 -2.363281 1.539062 -2.632812 1.75 -2.84375 C 1.96875 -3.050781 2.285156 -3.207031 2.703125 -3.3125 L 2.703125 -3.484375 C 1.765625 -3.972656 1.296875 -4.773438 1.296875 -5.890625 C 1.296875 -6.453125 1.421875 -6.953125 1.671875 -7.390625 C 1.929688 -7.828125 2.296875 -8.164062 2.765625 -8.40625 C 3.242188 -8.65625 3.796875 -8.78125 4.421875 -8.78125 C 5.148438 -8.78125 5.753906 -8.625 6.234375 -8.3125 C 6.421875 -8.507812 6.554688 -8.722656 6.640625 -8.953125 C 6.734375 -9.191406 6.796875 -9.457031 6.828125 -9.75 L 6.984375 -9.84375 L 8.03125 -9.59375 C 7.976562 -9.15625 7.847656 -8.785156 7.640625 -8.484375 C 7.429688 -8.179688 7.132812 -7.929688 6.75 -7.734375 L 6.75 -7.578125 C 7.019531 -7.359375 7.222656 -7.097656 7.359375 -6.796875 C 7.492188 -6.503906 7.5625 -6.164062 7.5625 -5.78125 C 7.5625 -5.238281 7.429688 -4.75 7.171875 -4.3125 C 6.910156 -3.882812 6.539062 -3.546875 6.0625 -3.296875 C 5.59375 -3.046875 5.046875 -2.921875 4.421875 -2.921875 C 4.347656 -2.921875 4.21875 -2.925781 4.03125 -2.9375 C 3.820312 -2.945312 3.671875 -2.953125 3.578125 -2.953125 C 3.304688 -2.953125 3.085938 -2.878906 2.921875 -2.734375 C 2.765625 -2.597656 2.6875 -2.421875 2.6875 -2.203125 C 2.6875 -1.929688 2.769531 -1.734375 2.9375 -1.609375 C 3.113281 -1.484375 3.40625 -1.410156 3.8125 -1.390625 L 5.84375 -1.328125 C 6.726562 -1.296875 7.378906 -1.085938 7.796875 -0.703125 C 8.222656 -0.328125 8.4375 0.207031 8.4375 0.90625 C 8.4375 1.414062 8.296875 1.878906 8.015625 2.296875 C 7.742188 2.710938 7.304688 3.039062 6.703125 3.28125 C 6.109375 3.53125 5.351562 3.65625 4.4375 3.65625 Z M 4.421875 -4.015625 C 5.035156 -4.015625 5.507812 -4.171875 5.84375 -4.484375 C 6.175781 -4.804688 6.34375 -5.253906 6.34375 -5.828125 C 6.34375 -6.421875 6.175781 -6.878906 5.84375 -7.203125 C 5.507812 -7.523438 5.035156 -7.6875 4.421875 -7.6875 C 3.804688 -7.6875 3.335938 -7.523438 3.015625 -7.203125 C 2.691406 -6.890625 2.53125 -6.429688 2.53125 -5.828125 C 2.53125 -5.253906 2.691406 -4.804688 3.015625 -4.484375 C 3.335938 -4.171875 3.804688 -4.015625 4.421875 -4.015625 Z M 4.4375 2.5625 C 5.070312 2.5625 5.59375 2.488281 6 2.34375 C 6.40625 2.207031 6.695312 2.023438 6.875 1.796875 C 7.050781 1.566406 7.140625 1.304688 7.140625 1.015625 C 7.140625 0.765625 7.085938 0.5625 6.984375 0.40625 C 6.890625 0.25 6.734375 0.128906 6.515625 0.046875 C 6.304688 -0.0351562 6.019531 -0.0859375 5.65625 -0.109375 L 3.71875 -0.203125 L 3.453125 -0.203125 C 2.367188 -0.179688 1.828125 0.238281 1.828125 1.0625 C 1.828125 2.0625 2.695312 2.5625 4.4375 2.5625 Z M 4.4375 2.5625 "/></g></g></g><g fill="#000000" fill-opacity="1"><g transform="translate(178.574401, 197.624984)"><g><path d="M 2.140625 -10.28125 C 1.867188 -10.28125 1.648438 -10.363281 1.484375 -10.53125 C 1.316406 -10.707031 1.234375 -10.925781 1.234375 -11.1875 C 1.234375 -11.445312 1.316406 -11.660156 1.484375 -11.828125 C 1.648438 -11.992188 1.867188 -12.078125 2.140625 -12.078125 C 2.410156 -12.078125 2.628906 -11.992188 2.796875 -11.828125 C 2.972656 -11.660156 3.0625 -11.445312 3.0625 -11.1875 C 3.0625 -10.925781 2.972656 -10.707031 2.796875 -10.53125 C 2.628906 -10.363281 2.410156 -10.28125 2.140625 -10.28125 Z M 0.421875 3.65625 C 0.148438 3.65625 -0.0859375 3.632812 -0.296875 3.59375 C -0.503906 3.5625 -0.707031 3.507812 -0.90625 3.4375 L -0.703125 2.453125 L -0.5625 2.40625 C -0.300781 2.5 -0.03125 2.546875 0.25 2.546875 C 0.65625 2.546875 0.960938 2.410156 1.171875 2.140625 C 1.390625 1.878906 1.5 1.5 1.5 1 L 1.5 -8.625 L 2.78125 -8.625 L 2.78125 0.953125 C 2.78125 1.816406 2.570312 2.484375 2.15625 2.953125 C 1.75 3.421875 1.171875 3.65625 0.421875 3.65625 Z M 0.421875 3.65625 "/></g></g></g><g fill="#000000" fill-opacity="1"><g transform="translate(182.846801, 197.624984)"><g><path d="M 1.5 0 L 1.5 -12.078125 L 2.78125 -12.078125 L 2.78125 -5.03125 L 2.984375 -5.03125 L 6.1875 -8.625 L 7.53125 -8.625 L 7.53125 -8.4375 L 4.109375 -4.578125 L 7.859375 -0.203125 L 7.859375 0 L 6.4375 0 L 2.984375 -3.984375 L 2.78125 -3.984375 L 2.78125 0 Z M 1.5 0 "/></g></g></g><g fill="#000000" fill-opacity="1"><g transform="translate(190.860468, 197.624984)"><g><path d="M 4.4375 3.65625 C 3.082031 3.65625 2.09375 3.425781 1.46875 2.96875 C 0.84375 2.519531 0.53125 1.921875 0.53125 1.171875 C 0.53125 0.691406 0.675781 0.304688 0.96875 0.015625 C 1.257812 -0.273438 1.679688 -0.484375 2.234375 -0.609375 L 2.234375 -0.765625 C 1.972656 -0.921875 1.773438 -1.097656 1.640625 -1.296875 C 1.503906 -1.503906 1.4375 -1.75 1.4375 -2.03125 C 1.4375 -2.363281 1.539062 -2.632812 1.75 -2.84375 C 1.96875 -3.050781 2.285156 -3.207031 2.703125 -3.3125 L 2.703125 -3.484375 C 1.765625 -3.972656 1.296875 -4.773438 1.296875 -5.890625 C 1.296875 -6.453125 1.421875 -6.953125 1.671875 -7.390625 C 1.929688 -7.828125 2.296875 -8.164062 2.765625 -8.40625 C 3.242188 -8.65625 3.796875 -8.78125 4.421875 -8.78125 C 5.148438 -8.78125 5.753906 -8.625 6.234375 -8.3125 C 6.421875 -8.507812 6.554688 -8.722656 6.640625 -8.953125 C 6.734375 -9.191406 6.796875 -9.457031 6.828125 -9.75 L 6.984375 -9.84375 L 8.03125 -9.59375 C 7.976562 -9.15625 7.847656 -8.785156 7.640625 -8.484375 C 7.429688 -8.179688 7.132812 -7.929688 6.75 -7.734375 L 6.75 -7.578125 C 7.019531 -7.359375 7.222656 -7.097656 7.359375 -6.796875 C 7.492188 -6.503906 7.5625 -6.164062 7.5625 -5.78125 C 7.5625 -5.238281 7.429688 -4.75 7.171875 -4.3125 C 6.910156 -3.882812 6.539062 -3.546875 6.0625 -3.296875 C 5.59375 -3.046875 5.046875 -2.921875 4.421875 -2.921875 C 4.347656 -2.921875 4.21875 -2.925781 4.03125 -2.9375 C 3.820312 -2.945312 3.671875 -2.953125 3.578125 -2.953125 C 3.304688 -2.953125 3.085938 -2.878906 2.921875 -2.734375 C 2.765625 -2.597656 2.6875 -2.421875 2.6875 -2.203125 C 2.6875 -1.929688 2.769531 -1.734375 2.9375 -1.609375 C 3.113281 -1.484375 3.40625 -1.410156 3.8125 -1.390625 L 5.84375 -1.328125 C 6.726562 -1.296875 7.378906 -1.085938 7.796875 -0.703125 C 8.222656 -0.328125 8.4375 0.207031 8.4375 0.90625 C 8.4375 1.414062 8.296875 1.878906 8.015625 2.296875 C 7.742188 2.710938 7.304688 3.039062 6.703125 3.28125 C 6.109375 3.53125 5.351562 3.65625 4.4375 3.65625 Z M 4.421875 -4.015625 C 5.035156 -4.015625 5.507812 -4.171875 5.84375 -4.484375 C 6.175781 -4.804688 6.34375 -5.253906 6.34375 -5.828125 C 6.34375 -6.421875 6.175781 -6.878906 5.84375 -7.203125 C 5.507812 -7.523438 5.035156 -7.6875 4.421875 -7.6875 C 3.804688 -7.6875 3.335938 -7.523438 3.015625 -7.203125 C 2.691406 -6.890625 2.53125 -6.429688 2.53125 -5.828125 C 2.53125 -5.253906 2.691406 -4.804688 3.015625 -4.484375 C 3.335938 -4.171875 3.804688 -4.015625 4.421875 -4.015625 Z M 4.4375 2.5625 C 5.070312 2.5625 5.59375 2.488281 6 2.34375 C 6.40625 2.207031 6.695312 2.023438 6.875 1.796875 C 7.050781 1.566406 7.140625 1.304688 7.140625 1.015625 C 7.140625 0.765625 7.085938 0.5625 6.984375 0.40625 C 6.890625 0.25 6.734375 0.128906 6.515625 0.046875 C 6.304688 -0.0351562 6.019531 -0.0859375 5.65625 -0.109375 L 3.71875 -0.203125 L 3.453125 -0.203125 C 2.367188 -0.179688 1.828125 0.238281 1.828125 1.0625 C 1.828125 2.0625 2.695312 2.5625 4.4375 2.5625 Z M 4.4375 2.5625 "/></g></g></g><g fill="#000000" fill-opacity="1"><g transform="translate(199.686437, 197.624984)"><g><path d="M 4.46875 0.171875 C 3.78125 0.171875 3.171875 0.00390625 2.640625 -0.328125 C 2.109375 -0.660156 1.691406 -1.160156 1.390625 -1.828125 C 1.097656 -2.492188 0.953125 -3.320312 0.953125 -4.3125 C 0.953125 -5.289062 1.109375 -6.113281 1.421875 -6.78125 C 1.734375 -7.457031 2.160156 -7.957031 2.703125 -8.28125 C 3.253906 -8.613281 3.894531 -8.78125 4.625 -8.78125 C 5.195312 -8.78125 5.710938 -8.671875 6.171875 -8.453125 C 6.628906 -8.242188 7.019531 -7.890625 7.34375 -7.390625 L 7.515625 -7.421875 L 7.515625 -12.078125 L 8.78125 -12.078125 L 8.78125 0 L 7.515625 0 L 7.515625 -1.265625 L 7.34375 -1.296875 C 7.0625 -0.867188 6.679688 -0.515625 6.203125 -0.234375 C 5.722656 0.0351562 5.144531 0.171875 4.46875 0.171875 Z M 4.875 -0.984375 C 5.675781 -0.984375 6.316406 -1.253906 6.796875 -1.796875 C 7.273438 -2.347656 7.515625 -3.1875 7.515625 -4.3125 C 7.515625 -5.4375 7.273438 -6.269531 6.796875 -6.8125 C 6.316406 -7.363281 5.675781 -7.640625 4.875 -7.640625 C 4.039062 -7.640625 3.398438 -7.367188 2.953125 -6.828125 C 2.503906 -6.296875 2.28125 -5.457031 2.28125 -4.3125 C 2.28125 -2.09375 3.144531 -0.984375 4.875 -0.984375 Z M 4.875 -0.984375 "/></g></g></g><g fill="#000000" fill-opacity="1"><g transform="translate(209.972993, 197.624984)"><g><path d="M 2.140625 -10.28125 C 1.867188 -10.28125 1.648438 -10.363281 1.484375 -10.53125 C 1.316406 -10.707031 1.234375 -10.925781 1.234375 -11.1875 C 1.234375 -11.445312 1.316406 -11.660156 1.484375 -11.828125 C 1.648438 -11.992188 1.867188 -12.078125 2.140625 -12.078125 C 2.410156 -12.078125 2.628906 -11.992188 2.796875 -11.828125 C 2.972656 -11.660156 3.0625 -11.445312 3.0625 -11.1875 C 3.0625 -10.925781 2.972656 -10.707031 2.796875 -10.53125 C 2.628906 -10.363281 2.410156 -10.28125 2.140625 -10.28125 Z M 0.421875 3.65625 C 0.148438 3.65625 -0.0859375 3.632812 -0.296875 3.59375 C -0.503906 3.5625 -0.707031 3.507812 -0.90625 3.4375 L -0.703125 2.453125 L -0.5625 2.40625 C -0.300781 2.5 -0.03125 2.546875 0.25 2.546875 C 0.65625 2.546875 0.960938 2.410156 1.171875 2.140625 C 1.390625 1.878906 1.5 1.5 1.5 1 L 1.5 -8.625 L 2.78125 -8.625 L 2.78125 0.953125 C 2.78125 1.816406 2.570312 2.484375 2.15625 2.953125 C 1.75 3.421875 1.171875 3.65625 0.421875 3.65625 Z M 0.421875 3.65625 "/></g></g></g><g clip-path="url(#8331e663b1)"><path fill="#f5f5f5" d="M 66.164062 50.335938 L 343.550781 50.335938 C 344.097656 50.335938 344.640625 50.363281 345.183594 50.417969 C 345.726562 50.472656 346.265625 50.550781 346.800781 50.65625 C 347.332031 50.765625 347.863281 50.894531 348.382812 51.054688 C 348.90625 51.210938 349.417969 51.394531 349.921875 51.605469 C 350.425781 51.8125 350.917969 52.046875 351.398438 52.304688 C 351.878906 52.558594 352.34375 52.839844 352.796875 53.144531 C 353.25 53.445312 353.6875 53.769531 354.109375 54.117188 C 354.53125 54.460938 354.933594 54.828125 355.320312 55.210938 C 355.707031 55.597656 356.070312 56 356.417969 56.421875 C 356.761719 56.84375 357.085938 57.28125 357.390625 57.734375 C 357.691406 58.1875 357.972656 58.65625 358.230469 59.136719 C 358.488281 59.617188 358.71875 60.109375 358.929688 60.613281 C 359.136719 61.117188 359.320312 61.628906 359.480469 62.148438 C 359.636719 62.671875 359.769531 63.199219 359.875 63.734375 C 359.980469 64.269531 360.0625 64.808594 360.113281 65.351562 C 360.167969 65.890625 360.195312 66.4375 360.195312 66.980469 L 360.195312 272.253906 C 360.195312 272.800781 360.167969 273.34375 360.113281 273.886719 C 360.0625 274.429688 359.980469 274.96875 359.875 275.503906 C 359.769531 276.039062 359.636719 276.566406 359.480469 277.085938 C 359.320312 277.609375 359.136719 278.121094 358.929688 278.625 C 358.71875 279.128906 358.488281 279.621094 358.230469 280.101562 C 357.972656 280.582031 357.691406 281.050781 357.390625 281.503906 C 357.085938 281.957031 356.761719 282.394531 356.417969 282.8125 C 356.070312 283.234375 355.707031 283.640625 355.320312 284.023438 C 354.933594 284.410156 354.53125 284.777344 354.109375 285.121094 C 353.6875 285.46875 353.25 285.792969 352.796875 286.09375 C 352.34375 286.398438 351.878906 286.675781 351.398438 286.933594 C 350.917969 287.191406 350.425781 287.421875 349.921875 287.632812 C 349.417969 287.839844 348.90625 288.023438 348.382812 288.183594 C 347.863281 288.339844 347.332031 288.472656 346.800781 288.578125 C 346.265625 288.6875 345.726562 288.765625 345.183594 288.820312 C 344.640625 288.871094 344.097656 288.898438 343.550781 288.898438 L 66.164062 288.898438 C 65.617188 288.898438 65.074219 288.871094 64.53125 288.820312 C 63.988281 288.765625 63.453125 288.6875 62.917969 288.578125 C 62.382812 288.472656 61.855469 288.339844 61.332031 288.183594 C 60.8125 288.023438 60.296875 287.839844 59.792969 287.632812 C 59.292969 287.421875 58.800781 287.191406 58.316406 286.933594 C 57.835938 286.675781 57.371094 286.398438 56.917969 286.09375 C 56.464844 285.792969 56.027344 285.46875 55.605469 285.121094 C 55.183594 284.777344 54.78125 284.410156 54.394531 284.023438 C 54.007812 283.640625 53.644531 283.234375 53.296875 282.8125 C 52.953125 282.394531 52.628906 281.957031 52.324219 281.503906 C 52.023438 281.050781 51.742188 280.582031 51.484375 280.101562 C 51.230469 279.621094 50.996094 279.128906 50.789062 278.625 C 50.578125 278.121094 50.394531 277.609375 50.238281 277.085938 C 50.078125 276.566406 49.945312 276.039062 49.839844 275.503906 C 49.734375 274.96875 49.652344 274.429688 49.601562 273.886719 C 49.546875 273.34375 49.519531 272.800781 49.519531 272.253906 L 49.519531 66.980469 C 49.519531 66.4375 49.546875 65.890625 49.601562 65.351562 C 49.652344 64.808594 49.734375 64.269531 49.839844 63.734375 C 49.945312 63.199219 50.078125 62.671875 50.238281 62.148438 C 50.394531 61.628906 50.578125 61.117188 50.789062 60.613281 C 50.996094 60.109375 51.230469 59.617188 51.484375 59.136719 C 51.742188 58.65625 52.023438 58.1875 52.324219 57.734375 C 52.628906 57.28125 52.953125 56.84375 53.296875 56.421875 C 53.644531 56 54.007812 55.597656 54.394531 55.210938 C 54.78125 54.828125 55.183594 54.460938 55.605469 54.117188 C 56.027344 53.769531 56.464844 53.445312 56.917969 53.144531 C 57.371094 52.839844 57.835938 52.558594 58.316406 52.304688 C 58.800781 52.046875 59.292969 51.8125 59.792969 51.605469 C 60.296875 51.394531 60.8125 51.210938 61.332031 51.054688 C 61.855469 50.894531 62.382812 50.765625 62.917969 50.65625 C 63.453125 50.550781 63.988281 50.472656 64.53125 50.417969 C 65.074219 50.363281 65.617188 50.335938 66.164062 50.335938 Z M 66.164062 50.335938 " fill-opacity="1" fill-rule="nonzero"/></g><path fill="#f44336" d="M 232.597656 183.488281 L 221.5 183.488281 C 220.773438 183.488281 220.050781 183.558594 219.335938 183.703125 C 218.621094 183.84375 217.929688 184.054688 217.253906 184.332031 C 216.582031 184.613281 215.941406 184.953125 215.335938 185.359375 C 214.730469 185.761719 214.171875 186.222656 213.65625 186.738281 C 213.140625 187.253906 212.679688 187.8125 212.277344 188.417969 C 211.871094 189.027344 211.527344 189.664062 211.25 190.339844 C 210.972656 191.011719 210.761719 191.703125 210.617188 192.417969 C 210.476562 193.132812 210.40625 193.855469 210.40625 194.585938 L 210.40625 266.707031 L 243.691406 266.707031 L 243.691406 194.585938 C 243.691406 193.855469 243.621094 193.132812 243.480469 192.417969 C 243.335938 191.703125 243.125 191.011719 242.847656 190.339844 C 242.570312 189.664062 242.226562 189.027344 241.824219 188.417969 C 241.417969 187.8125 240.957031 187.253906 240.441406 186.738281 C 239.925781 186.222656 239.367188 185.761719 238.761719 185.359375 C 238.15625 184.953125 237.515625 184.613281 236.84375 184.332031 C 236.167969 184.054688 235.476562 183.84375 234.761719 183.703125 C 234.046875 183.558594 233.324219 183.488281 232.597656 183.488281 Z M 232.597656 183.488281 " fill-opacity="1" fill-rule="nonzero"/><path fill="#fbc02d" d="M 271.429688 166.84375 L 260.335938 166.84375 C 259.605469 166.84375 258.886719 166.914062 258.171875 167.058594 C 257.457031 167.199219 256.761719 167.410156 256.089844 167.6875 C 255.417969 167.96875 254.777344 168.308594 254.171875 168.714844 C 253.566406 169.121094 253.003906 169.578125 252.488281 170.09375 C 251.976562 170.609375 251.515625 171.171875 251.109375 171.777344 C 250.707031 172.382812 250.363281 173.019531 250.085938 173.695312 C 249.804688 174.367188 249.59375 175.0625 249.453125 175.777344 C 249.3125 176.492188 249.238281 177.210938 249.238281 177.941406 L 249.238281 266.707031 L 282.527344 266.707031 L 282.527344 177.941406 C 282.527344 177.210938 282.457031 176.492188 282.3125 175.777344 C 282.171875 175.0625 281.960938 174.367188 281.683594 173.695312 C 281.402344 173.019531 281.0625 172.382812 280.65625 171.777344 C 280.25 171.171875 279.792969 170.609375 279.277344 170.09375 C 278.761719 169.578125 278.203125 169.121094 277.59375 168.714844 C 276.988281 168.308594 276.351562 167.96875 275.675781 167.6875 C 275.003906 167.410156 274.308594 167.199219 273.59375 167.058594 C 272.882812 166.914062 272.160156 166.84375 271.429688 166.84375 Z M 271.429688 166.84375 " fill-opacity="1" fill-rule="nonzero"/><path fill="#7cb342" d="M 310.265625 200.132812 L 299.171875 200.132812 C 298.441406 200.132812 297.71875 200.203125 297.003906 200.34375 C 296.289062 200.488281 295.597656 200.699219 294.925781 200.976562 C 294.25 201.253906 293.609375 201.597656 293.003906 202.003906 C 292.398438 202.40625 291.839844 202.867188 291.324219 203.382812 C 290.808594 203.898438 290.347656 204.457031 289.945312 205.0625 C 289.539062 205.667969 289.199219 206.308594 288.917969 206.980469 C 288.640625 207.65625 288.429688 208.347656 288.289062 209.0625 C 288.144531 209.777344 288.074219 210.5 288.074219 211.226562 L 288.074219 266.707031 L 321.359375 266.707031 L 321.359375 211.226562 C 321.359375 210.5 321.289062 209.777344 321.148438 209.0625 C 321.003906 208.347656 320.796875 207.65625 320.515625 206.980469 C 320.238281 206.308594 319.894531 205.667969 319.492188 205.0625 C 319.085938 204.457031 318.625 203.898438 318.109375 203.382812 C 317.597656 202.867188 317.035156 202.40625 316.429688 202.003906 C 315.824219 201.597656 315.183594 201.253906 314.511719 200.976562 C 313.839844 200.699219 313.144531 200.488281 312.429688 200.34375 C 311.714844 200.203125 310.992188 200.132812 310.265625 200.132812 Z M 310.265625 200.132812 " fill-opacity="1" fill-rule="nonzero"/><path fill="#212121" d="M 225.777344 96.738281 C 225.546875 96.457031 225.289062 96.199219 225.007812 95.96875 C 224.726562 95.742188 224.421875 95.539062 224.101562 95.371094 C 223.777344 95.199219 223.445312 95.0625 223.09375 94.957031 C 222.746094 94.851562 222.390625 94.78125 222.027344 94.75 C 221.664062 94.714844 221.300781 94.714844 220.941406 94.75 C 220.578125 94.789062 220.222656 94.859375 219.875 94.96875 C 219.527344 95.074219 219.191406 95.214844 218.871094 95.386719 C 218.550781 95.558594 218.25 95.761719 217.96875 95.996094 L 157.625 145.84375 L 108.4375 107.007812 C 107.921875 106.605469 107.359375 106.304688 106.738281 106.097656 C 106.121094 105.894531 105.484375 105.804688 104.835938 105.824219 C 104.183594 105.84375 103.554688 105.972656 102.949219 106.210938 C 102.34375 106.453125 101.796875 106.789062 101.3125 107.21875 L 51.382812 151.605469 C 51.121094 151.847656 50.886719 152.117188 50.675781 152.40625 C 50.46875 152.699219 50.289062 153.007812 50.136719 153.332031 C 49.988281 153.65625 49.871094 153.992188 49.789062 154.339844 C 49.703125 154.6875 49.652344 155.042969 49.636719 155.398438 C 49.621094 155.757812 49.640625 156.113281 49.691406 156.46875 C 49.746094 156.820312 49.832031 157.167969 49.953125 157.503906 C 50.070312 157.84375 50.222656 158.164062 50.40625 158.472656 C 50.585938 158.78125 50.796875 159.070312 51.035156 159.335938 C 51.273438 159.605469 51.535156 159.847656 51.820312 160.0625 C 52.105469 160.28125 52.40625 160.46875 52.726562 160.625 C 53.050781 160.785156 53.382812 160.910156 53.726562 161.003906 C 54.074219 161.097656 54.425781 161.15625 54.78125 161.183594 C 55.140625 161.210938 55.496094 161.199219 55.851562 161.15625 C 56.207031 161.113281 56.554688 161.035156 56.894531 160.925781 C 57.234375 160.816406 57.5625 160.671875 57.875 160.5 C 58.1875 160.324219 58.480469 160.125 58.753906 159.894531 L 105.210938 118.597656 L 154.265625 157.332031 C 154.761719 157.722656 155.3125 158.023438 155.910156 158.226562 C 156.511719 158.433594 157.128906 158.53125 157.765625 158.523438 C 158.398438 158.515625 159.011719 158.402344 159.609375 158.183594 C 160.203125 157.964844 160.746094 157.652344 161.234375 157.25 L 225.035156 104.542969 C 225.3125 104.3125 225.570312 104.054688 225.800781 103.773438 C 226.03125 103.492188 226.230469 103.1875 226.402344 102.867188 C 226.570312 102.546875 226.710938 102.210938 226.8125 101.863281 C 226.917969 101.511719 226.988281 101.15625 227.023438 100.792969 C 227.058594 100.433594 227.058594 100.070312 227.019531 99.707031 C 226.984375 99.34375 226.910156 98.988281 226.804688 98.640625 C 226.699219 98.292969 226.558594 97.960938 226.386719 97.640625 C 226.210938 97.316406 226.011719 97.015625 225.777344 96.738281 Z M 225.777344 96.738281 " fill-opacity="1" fill-rule="nonzero"/><path fill="#212121" d="M 326.910156 94.722656 L 276.980469 94.722656 C 276.613281 94.722656 276.253906 94.6875 275.898438 94.613281 C 275.539062 94.542969 275.191406 94.4375 274.855469 94.300781 C 274.519531 94.160156 274.199219 93.988281 273.898438 93.785156 C 273.59375 93.582031 273.3125 93.355469 273.054688 93.097656 C 272.796875 92.839844 272.570312 92.558594 272.367188 92.253906 C 272.164062 91.953125 271.992188 91.632812 271.851562 91.296875 C 271.714844 90.960938 271.609375 90.613281 271.539062 90.253906 C 271.464844 89.898438 271.429688 89.539062 271.429688 89.171875 C 271.429688 88.808594 271.464844 88.449219 271.539062 88.089844 C 271.609375 87.734375 271.714844 87.386719 271.851562 87.050781 C 271.992188 86.714844 272.164062 86.394531 272.367188 86.089844 C 272.570312 85.789062 272.796875 85.507812 273.054688 85.25 C 273.3125 84.992188 273.59375 84.761719 273.898438 84.558594 C 274.199219 84.359375 274.519531 84.1875 274.855469 84.046875 C 275.191406 83.90625 275.539062 83.804688 275.898438 83.730469 C 276.253906 83.660156 276.613281 83.625 276.980469 83.625 L 326.910156 83.625 C 327.273438 83.625 327.632812 83.660156 327.992188 83.730469 C 328.347656 83.804688 328.695312 83.90625 329.03125 84.046875 C 329.367188 84.1875 329.6875 84.359375 329.992188 84.558594 C 330.292969 84.761719 330.574219 84.992188 330.832031 85.25 C 331.089844 85.507812 331.320312 85.789062 331.523438 86.089844 C 331.722656 86.394531 331.894531 86.714844 332.035156 87.050781 C 332.171875 87.386719 332.277344 87.734375 332.351562 88.089844 C 332.421875 88.449219 332.457031 88.808594 332.457031 89.171875 C 332.457031 89.539062 332.421875 89.898438 332.351562 90.253906 C 332.277344 90.613281 332.171875 90.960938 332.035156 91.296875 C 331.894531 91.632812 331.722656 91.953125 331.523438 92.253906 C 331.320312 92.558594 331.089844 92.839844 330.832031 93.097656 C 330.574219 93.355469 330.292969 93.582031 329.992188 93.785156 C 329.6875 93.988281 329.367188 94.160156 329.03125 94.300781 C 328.695312 94.4375 328.347656 94.542969 327.992188 94.613281 C 327.632812 94.6875 327.273438 94.722656 326.910156 94.722656 Z M 326.910156 94.722656 " fill-opacity="1" fill-rule="nonzero"/><path fill="#212121" d="M 265.882812 89.171875 C 265.882812 89.539062 265.847656 89.898438 265.777344 90.253906 C 265.707031 90.613281 265.601562 90.960938 265.460938 91.296875 C 265.320312 91.632812 265.152344 91.953125 264.949219 92.253906 C 264.746094 92.558594 264.515625 92.839844 264.257812 93.097656 C 264 93.355469 263.71875 93.582031 263.417969 93.785156 C 263.113281 93.988281 262.796875 94.160156 262.457031 94.300781 C 262.121094 94.4375 261.773438 94.542969 261.417969 94.613281 C 261.0625 94.6875 260.699219 94.722656 260.335938 94.722656 C 259.972656 94.722656 259.609375 94.6875 259.253906 94.613281 C 258.894531 94.542969 258.550781 94.4375 258.210938 94.300781 C 257.875 94.160156 257.554688 93.988281 257.253906 93.785156 C 256.949219 93.582031 256.671875 93.355469 256.414062 93.097656 C 256.15625 92.839844 255.925781 92.558594 255.722656 92.253906 C 255.519531 91.953125 255.347656 91.632812 255.210938 91.296875 C 255.070312 90.960938 254.964844 90.613281 254.894531 90.253906 C 254.824219 89.898438 254.789062 89.539062 254.789062 89.171875 C 254.789062 88.808594 254.824219 88.449219 254.894531 88.089844 C 254.964844 87.734375 255.070312 87.386719 255.210938 87.050781 C 255.347656 86.714844 255.519531 86.394531 255.722656 86.089844 C 255.925781 85.789062 256.15625 85.507812 256.414062 85.25 C 256.671875 84.992188 256.949219 84.761719 257.253906 84.558594 C 257.554688 84.359375 257.875 84.1875 258.210938 84.046875 C 258.550781 83.90625 258.894531 83.804688 259.253906 83.730469 C 259.609375 83.660156 259.972656 83.625 260.335938 83.625 C 260.699219 83.625 261.0625 83.660156 261.417969 83.730469 C 261.773438 83.804688 262.121094 83.90625 262.457031 84.046875 C 262.796875 84.1875 263.113281 84.359375 263.417969 84.558594 C 263.71875 84.761719 264 84.992188 264.257812 85.25 C 264.515625 85.507812 264.746094 85.789062 264.949219 86.089844 C 265.152344 86.394531 265.320312 86.714844 265.460938 87.050781 C 265.601562 87.386719 265.707031 87.734375 265.777344 88.089844 C 265.847656 88.449219 265.882812 88.808594 265.882812 89.171875 Z M 265.882812 89.171875 " fill-opacity="1" fill-rule="nonzero"/><path fill="#212121" d="M 326.910156 116.914062 L 276.980469 116.914062 C 276.613281 116.914062 276.253906 116.878906 275.898438 116.804688 C 275.539062 116.734375 275.191406 116.628906 274.855469 116.492188 C 274.519531 116.351562 274.199219 116.179688 273.898438 115.976562 C 273.59375 115.777344 273.3125 115.546875 273.054688 115.289062 C 272.796875 115.03125 272.570312 114.75 272.367188 114.449219 C 272.164062 114.144531 271.992188 113.824219 271.851562 113.488281 C 271.714844 113.152344 271.609375 112.804688 271.539062 112.449219 C 271.464844 112.089844 271.429688 111.730469 271.429688 111.363281 C 271.429688 111 271.464844 110.640625 271.539062 110.28125 C 271.609375 109.925781 271.714844 109.578125 271.851562 109.242188 C 271.992188 108.90625 272.164062 108.585938 272.367188 108.28125 C 272.570312 107.980469 272.796875 107.699219 273.054688 107.441406 C 273.3125 107.183594 273.59375 106.953125 273.898438 106.753906 C 274.199219 106.550781 274.519531 106.378906 274.855469 106.238281 C 275.191406 106.101562 275.539062 105.996094 275.898438 105.921875 C 276.253906 105.851562 276.613281 105.816406 276.980469 105.816406 L 326.910156 105.816406 C 327.273438 105.816406 327.632812 105.851562 327.992188 105.921875 C 328.347656 105.996094 328.695312 106.101562 329.03125 106.238281 C 329.367188 106.378906 329.6875 106.550781 329.992188 106.753906 C 330.292969 106.953125 330.574219 107.183594 330.832031 107.441406 C 331.089844 107.699219 331.320312 107.980469 331.523438 108.28125 C 331.722656 108.585938 331.894531 108.90625 332.035156 109.242188 C 332.171875 109.578125 332.277344 109.925781 332.351562 110.28125 C 332.421875 110.640625 332.457031 111 332.457031 111.363281 C 332.457031 111.730469 332.421875 112.089844 332.351562 112.449219 C 332.277344 112.804688 332.171875 113.152344 332.035156 113.488281 C 331.894531 113.824219 331.722656 114.144531 331.523438 114.449219 C 331.320312 114.75 331.089844 115.03125 330.832031 115.289062 C 330.574219 115.546875 330.292969 115.777344 329.992188 115.976562 C 329.6875 116.179688 329.367188 116.351562 329.03125 116.492188 C 328.695312 116.628906 328.347656 116.734375 327.992188 116.804688 C 327.632812 116.878906 327.273438 116.914062 326.910156 116.914062 Z M 326.910156 116.914062 " fill-opacity="1" fill-rule="nonzero"/><path fill="#212121" d="M 326.910156 139.105469 L 276.980469 139.105469 C 276.613281 139.105469 276.253906 139.070312 275.898438 139 C 275.539062 138.925781 275.191406 138.820312 274.855469 138.683594 C 274.519531 138.542969 274.199219 138.371094 273.898438 138.167969 C 273.59375 137.96875 273.3125 137.738281 273.054688 137.480469 C 272.796875 137.222656 272.570312 136.941406 272.367188 136.640625 C 272.164062 136.335938 271.992188 136.015625 271.851562 135.679688 C 271.714844 135.34375 271.609375 134.996094 271.539062 134.640625 C 271.464844 134.28125 271.429688 133.921875 271.429688 133.558594 C 271.429688 133.191406 271.464844 132.832031 271.539062 132.472656 C 271.609375 132.117188 271.714844 131.769531 271.851562 131.433594 C 271.992188 131.097656 272.164062 130.777344 272.367188 130.472656 C 272.570312 130.171875 272.796875 129.890625 273.054688 129.632812 C 273.3125 129.375 273.59375 129.144531 273.898438 128.945312 C 274.199219 128.742188 274.519531 128.570312 274.855469 128.429688 C 275.191406 128.292969 275.539062 128.1875 275.898438 128.117188 C 276.253906 128.042969 276.613281 128.007812 276.980469 128.007812 L 326.910156 128.007812 C 327.273438 128.007812 327.632812 128.042969 327.992188 128.117188 C 328.347656 128.1875 328.695312 128.292969 329.03125 128.429688 C 329.367188 128.570312 329.6875 128.742188 329.992188 128.945312 C 330.292969 129.144531 330.574219 129.375 330.832031 129.632812 C 331.089844 129.890625 331.320312 130.171875 331.523438 130.472656 C 331.722656 130.777344 331.894531 131.097656 332.035156 131.433594 C 332.171875 131.769531 332.277344 132.117188 332.351562 132.472656 C 332.421875 132.832031 332.457031 133.191406 332.457031 133.558594 C 332.457031 133.921875 332.421875 134.28125 332.351562 134.640625 C 332.277344 134.996094 332.171875 135.34375 332.035156 135.679688 C 331.894531 136.015625 331.722656 136.335938 331.523438 136.640625 C 331.320312 136.941406 331.089844 137.222656 330.832031 137.480469 C 330.574219 137.738281 330.292969 137.96875 329.992188 138.167969 C 329.6875 138.371094 329.367188 138.542969 329.03125 138.683594 C 328.695312 138.820312 328.347656 138.925781 327.992188 139 C 327.632812 139.070312 327.273438 139.105469 326.910156 139.105469 Z M 326.910156 139.105469 " fill-opacity="1" fill-rule="nonzero"/><path fill="#212121" d="M 265.882812 111.363281 C 265.882812 111.730469 265.847656 112.089844 265.777344 112.449219 C 265.707031 112.804688 265.601562 113.152344 265.460938 113.488281 C 265.320312 113.824219 265.152344 114.144531 264.949219 114.449219 C 264.746094 114.75 264.515625 115.03125 264.257812 115.289062 C 264 115.546875 263.71875 115.777344 263.417969 115.976562 C 263.113281 116.179688 262.796875 116.351562 262.457031 116.492188 C 262.121094 116.628906 261.773438 116.734375 261.417969 116.804688 C 261.0625 116.878906 260.699219 116.914062 260.335938 116.914062 C 259.972656 116.914062 259.609375 116.878906 259.253906 116.804688 C 258.894531 116.734375 258.550781 116.628906 258.210938 116.492188 C 257.875 116.351562 257.554688 116.179688 257.253906 115.976562 C 256.949219 115.777344 256.671875 115.546875 256.414062 115.289062 C 256.15625 115.03125 255.925781 114.75 255.722656 114.449219 C 255.519531 114.144531 255.347656 113.824219 255.210938 113.488281 C 255.070312 113.152344 254.964844 112.804688 254.894531 112.449219 C 254.824219 112.089844 254.789062 111.730469 254.789062 111.363281 C 254.789062 111 254.824219 110.640625 254.894531 110.28125 C 254.964844 109.925781 255.070312 109.578125 255.210938 109.242188 C 255.347656 108.90625 255.519531 108.585938 255.722656 108.28125 C 255.925781 107.980469 256.15625 107.699219 256.414062 107.441406 C 256.671875 107.183594 256.949219 106.953125 257.253906 106.753906 C 257.554688 106.550781 257.875 106.378906 258.210938 106.238281 C 258.550781 106.101562 258.894531 105.996094 259.253906 105.921875 C 259.609375 105.851562 259.972656 105.816406 260.335938 105.816406 C 260.699219 105.816406 261.0625 105.851562 261.417969 105.921875 C 261.773438 105.996094 262.121094 106.101562 262.457031 106.238281 C 262.796875 106.378906 263.113281 106.550781 263.417969 106.753906 C 263.71875 106.953125 264 107.183594 264.257812 107.441406 C 264.515625 107.699219 264.746094 107.980469 264.949219 108.28125 C 265.152344 108.585938 265.320312 108.90625 265.460938 109.242188 C 265.601562 109.578125 265.707031 109.925781 265.777344 110.28125 C 265.847656 110.640625 265.882812 111 265.882812 111.363281 Z M 265.882812 111.363281 " fill-opacity="1" fill-rule="nonzero"/><path fill="#212121" d="M 265.882812 133.558594 C 265.882812 133.921875 265.847656 134.28125 265.777344 134.640625 C 265.707031 134.996094 265.601562 135.34375 265.460938 135.679688 C 265.320312 136.015625 265.152344 136.335938 264.949219 136.640625 C 264.746094 136.941406 264.515625 137.222656 264.257812 137.480469 C 264 137.738281 263.71875 137.96875 263.417969 138.167969 C 263.113281 138.371094 262.796875 138.542969 262.457031 138.683594 C 262.121094 138.820312 261.773438 138.925781 261.417969 139 C 261.0625 139.070312 260.699219 139.105469 260.335938 139.105469 C 259.972656 139.105469 259.609375 139.070312 259.253906 139 C 258.894531 138.925781 258.550781 138.820312 258.210938 138.683594 C 257.875 138.542969 257.554688 138.371094 257.253906 138.167969 C 256.949219 137.96875 256.671875 137.738281 256.414062 137.480469 C 256.15625 137.222656 255.925781 136.941406 255.722656 136.640625 C 255.519531 136.335938 255.347656 136.015625 255.210938 135.679688 C 255.070312 135.34375 254.964844 134.996094 254.894531 134.640625 C 254.824219 134.28125 254.789062 133.921875 254.789062 133.558594 C 254.789062 133.191406 254.824219 132.832031 254.894531 132.472656 C 254.964844 132.117188 255.070312 131.769531 255.210938 131.433594 C 255.347656 131.097656 255.519531 130.777344 255.722656 130.472656 C 255.925781 130.171875 256.15625 129.890625 256.414062 129.632812 C 256.671875 129.375 256.949219 129.144531 257.253906 128.945312 C 257.554688 128.742188 257.875 128.570312 258.210938 128.429688 C 258.550781 128.292969 258.894531 128.1875 259.253906 128.117188 C 259.609375 128.042969 259.972656 128.007812 260.335938 128.007812 C 260.699219 128.007812 261.0625 128.042969 261.417969 128.117188 C 261.773438 128.1875 262.121094 128.292969 262.457031 128.429688 C 262.796875 128.570312 263.113281 128.742188 263.417969 128.945312 C 263.71875 129.144531 264 129.375 264.257812 129.632812 C 264.515625 129.890625 264.746094 130.171875 264.949219 130.472656 C 265.152344 130.777344 265.320312 131.097656 265.460938 131.433594 C 265.601562 131.769531 265.707031 132.117188 265.777344 132.472656 C 265.847656 132.832031 265.882812 133.191406 265.882812 133.558594 Z M 265.882812 133.558594 " fill-opacity="1" fill-rule="nonzero"/><path fill="#f44336" d="M 99.449219 255.613281 L 35.8125 289.53125 C 36.75 291.289062 37.757812 293.007812 38.835938 294.683594 C 39.917969 296.359375 41.0625 297.988281 42.277344 299.566406 C 43.492188 301.148438 44.773438 302.675781 46.113281 304.148438 C 47.453125 305.625 48.855469 307.039062 50.3125 308.398438 C 51.773438 309.757812 53.285156 311.054688 54.851562 312.285156 C 56.417969 313.519531 58.03125 314.683594 59.695312 315.785156 C 61.359375 316.882812 63.066406 317.910156 64.8125 318.871094 C 66.5625 319.828125 68.347656 320.710938 70.167969 321.519531 C 71.988281 322.328125 73.84375 323.0625 75.722656 323.71875 C 77.605469 324.375 79.511719 324.953125 81.441406 325.449219 C 83.375 325.945312 85.320312 326.363281 87.285156 326.699219 C 89.25 327.039062 91.226562 327.292969 93.210938 327.464844 C 95.199219 327.636719 97.1875 327.726562 99.179688 327.734375 C 101.175781 327.742188 103.164062 327.667969 105.152344 327.511719 C 107.140625 327.351562 109.117188 327.113281 111.082031 326.792969 C 113.050781 326.46875 115 326.066406 116.933594 325.585938 C 118.871094 325.101562 120.78125 324.539062 122.667969 323.898438 C 124.554688 323.257812 126.414062 322.539062 128.238281 321.742188 C 130.066406 320.945312 131.859375 320.074219 133.613281 319.132812 C 135.371094 318.1875 137.085938 317.171875 138.753906 316.085938 C 140.425781 315 142.050781 313.84375 143.625 312.625 C 145.203125 311.402344 146.722656 310.121094 148.195312 308.773438 C 149.664062 307.425781 151.074219 306.019531 152.425781 304.554688 C 153.78125 303.089844 155.070312 301.574219 156.296875 300 C 157.523438 298.429688 158.683594 296.8125 159.773438 295.144531 C 160.867188 293.476562 161.890625 291.765625 162.839844 290.015625 C 163.789062 288.261719 164.667969 286.472656 165.46875 284.648438 C 166.273438 282.824219 166.996094 280.96875 167.648438 279.085938 C 168.296875 277.199219 168.863281 275.289062 169.355469 273.359375 C 169.84375 271.425781 170.253906 269.476562 170.582031 267.511719 C 170.914062 265.542969 171.160156 263.570312 171.324219 261.582031 C 171.488281 259.59375 171.570312 257.605469 171.570312 255.613281 Z M 99.449219 255.613281 " fill-opacity="1" fill-rule="nonzero"/><path fill="#fbc02d" d="M 99.449219 183.488281 C 97.902344 183.488281 96.355469 183.539062 94.808594 183.636719 C 93.265625 183.734375 91.722656 183.886719 90.1875 184.082031 C 88.652344 184.28125 87.125 184.53125 85.605469 184.828125 C 84.085938 185.125 82.578125 185.46875 81.078125 185.863281 C 79.582031 186.257812 78.097656 186.699219 76.628906 187.191406 C 75.160156 187.679688 73.707031 188.214844 72.273438 188.800781 C 70.839844 189.382812 69.425781 190.011719 68.03125 190.6875 C 66.636719 191.359375 65.265625 192.078125 63.917969 192.84375 C 62.570312 193.605469 61.25 194.410156 59.953125 195.257812 C 58.660156 196.105469 57.390625 196.996094 56.152344 197.925781 C 54.914062 198.855469 53.707031 199.820312 52.53125 200.828125 C 51.355469 201.835938 50.210938 202.882812 49.101562 203.960938 C 47.996094 205.042969 46.921875 206.160156 45.882812 207.308594 C 44.847656 208.457031 43.847656 209.640625 42.886719 210.855469 C 41.925781 212.070312 41.007812 213.3125 40.125 214.585938 C 39.246094 215.859375 38.40625 217.160156 37.609375 218.488281 C 36.8125 219.816406 36.058594 221.167969 35.351562 222.546875 C 34.640625 223.921875 33.976562 225.320312 33.355469 226.738281 C 32.734375 228.15625 32.164062 229.597656 31.636719 231.050781 C 31.109375 232.507812 30.628906 233.980469 30.195312 235.464844 C 29.765625 236.953125 29.378906 238.453125 29.042969 239.964844 C 28.707031 241.476562 28.421875 242.996094 28.183594 244.527344 C 27.945312 246.058594 27.757812 247.59375 27.621094 249.136719 C 27.480469 250.679688 27.390625 252.222656 27.351562 253.773438 C 27.3125 255.320312 27.324219 256.867188 27.382812 258.414062 C 27.445312 259.960938 27.554688 261.507812 27.714844 263.046875 C 27.875 264.585938 28.085938 266.121094 28.34375 267.648438 C 28.601562 269.171875 28.910156 270.691406 29.265625 272.199219 C 29.621094 273.703125 30.027344 275.199219 30.480469 276.679688 C 30.933594 278.160156 31.433594 279.625 31.980469 281.074219 C 32.527344 282.523438 33.121094 283.953125 33.757812 285.363281 C 34.398438 286.773438 35.082031 288.160156 35.8125 289.527344 L 99.449219 255.613281 Z M 99.449219 183.488281 " fill-opacity="1" fill-rule="nonzero"/><path fill="#7cb342" d="M 99.449219 183.488281 L 99.449219 255.613281 L 171.570312 255.613281 C 171.570312 254.429688 171.539062 253.253906 171.480469 252.074219 C 171.421875 250.894531 171.332031 249.71875 171.214844 248.542969 C 171.101562 247.371094 170.953125 246.199219 170.78125 245.03125 C 170.605469 243.867188 170.402344 242.703125 170.171875 241.546875 C 169.941406 240.390625 169.679688 239.238281 169.394531 238.09375 C 169.105469 236.949219 168.789062 235.8125 168.449219 234.683594 C 168.105469 233.554688 167.734375 232.4375 167.335938 231.324219 C 166.9375 230.214844 166.511719 229.113281 166.058594 228.023438 C 165.609375 226.933594 165.128906 225.855469 164.625 224.789062 C 164.117188 223.722656 163.589844 222.667969 163.03125 221.628906 C 162.476562 220.589844 161.894531 219.5625 161.285156 218.550781 C 160.679688 217.539062 160.046875 216.542969 159.390625 215.5625 C 158.734375 214.582031 158.054688 213.617188 157.351562 212.667969 C 156.652344 211.71875 155.925781 210.789062 155.175781 209.878906 C 154.425781 208.964844 153.65625 208.074219 152.863281 207.199219 C 152.070312 206.324219 151.257812 205.472656 150.425781 204.636719 C 149.589844 203.800781 148.734375 202.988281 147.859375 202.195312 C 146.988281 201.402344 146.09375 200.632812 145.183594 199.882812 C 144.269531 199.136719 143.339844 198.410156 142.390625 197.707031 C 141.445312 197.003906 140.480469 196.324219 139.5 195.667969 C 138.519531 195.011719 137.523438 194.382812 136.511719 193.773438 C 135.5 193.167969 134.472656 192.585938 133.433594 192.027344 C 132.390625 191.472656 131.339844 190.941406 130.273438 190.4375 C 129.207031 189.929688 128.128906 189.453125 127.039062 189 C 125.949219 188.546875 124.847656 188.121094 123.738281 187.722656 C 122.625 187.324219 121.503906 186.957031 120.375 186.613281 C 119.246094 186.269531 118.113281 185.953125 116.96875 185.664062 C 115.824219 185.378906 114.671875 185.117188 113.515625 184.886719 C 112.359375 184.65625 111.195312 184.453125 110.027344 184.28125 C 108.863281 184.105469 107.691406 183.960938 106.515625 183.84375 C 105.34375 183.726562 104.167969 183.636719 102.988281 183.578125 C 101.808594 183.519531 100.628906 183.488281 99.449219 183.488281 Z M 99.449219 183.488281 " fill-opacity="1" fill-rule="nonzero"/><path fill="#212121" d="M 332.457031 266.707031 L 210.40625 266.707031 C 209.859375 266.707031 209.316406 266.679688 208.773438 266.625 C 208.234375 266.570312 207.695312 266.492188 207.160156 266.382812 C 206.625 266.277344 206.097656 266.144531 205.578125 265.988281 C 205.054688 265.828125 204.542969 265.644531 204.039062 265.4375 C 203.535156 265.226562 203.042969 264.992188 202.5625 264.738281 C 202.082031 264.480469 201.617188 264.199219 201.164062 263.898438 C 200.710938 263.59375 200.273438 263.269531 199.851562 262.925781 C 199.429688 262.578125 199.027344 262.210938 198.640625 261.828125 C 198.257812 261.441406 197.890625 261.039062 197.546875 260.617188 C 197.199219 260.195312 196.875 259.757812 196.574219 259.304688 C 196.269531 258.851562 195.988281 258.386719 195.734375 257.90625 C 195.476562 257.425781 195.242188 256.933594 195.035156 256.429688 C 194.824219 255.925781 194.640625 255.414062 194.484375 254.894531 C 194.324219 254.371094 194.191406 253.84375 194.085938 253.308594 C 193.976562 252.773438 193.898438 252.238281 193.84375 251.695312 C 193.789062 251.152344 193.761719 250.609375 193.761719 250.0625 L 193.761719 161.296875 C 193.761719 160.933594 193.796875 160.570312 193.867188 160.214844 C 193.941406 159.855469 194.046875 159.511719 194.183594 159.171875 C 194.324219 158.835938 194.496094 158.515625 194.699219 158.214844 C 194.898438 157.910156 195.128906 157.632812 195.386719 157.375 C 195.644531 157.117188 195.925781 156.886719 196.226562 156.683594 C 196.53125 156.480469 196.851562 156.308594 197.1875 156.171875 C 197.523438 156.03125 197.871094 155.925781 198.226562 155.855469 C 198.585938 155.785156 198.945312 155.75 199.308594 155.75 C 199.675781 155.75 200.035156 155.785156 200.390625 155.855469 C 200.75 155.925781 201.097656 156.03125 201.433594 156.171875 C 201.769531 156.308594 202.089844 156.480469 202.390625 156.683594 C 202.695312 156.886719 202.976562 157.117188 203.234375 157.375 C 203.492188 157.632812 203.71875 157.910156 203.921875 158.214844 C 204.125 158.515625 204.296875 158.835938 204.4375 159.171875 C 204.574219 159.511719 204.679688 159.855469 204.75 160.214844 C 204.824219 160.570312 204.859375 160.933594 204.859375 161.296875 L 204.859375 250.0625 C 204.859375 250.429688 204.894531 250.789062 204.964844 251.144531 C 205.035156 251.503906 205.140625 251.847656 205.28125 252.1875 C 205.421875 252.523438 205.59375 252.84375 205.792969 253.144531 C 205.996094 253.449219 206.226562 253.726562 206.484375 253.984375 C 206.742188 254.242188 207.023438 254.472656 207.324219 254.675781 C 207.628906 254.878906 207.945312 255.046875 208.285156 255.1875 C 208.621094 255.328125 208.964844 255.433594 209.324219 255.503906 C 209.679688 255.574219 210.042969 255.609375 210.40625 255.613281 L 332.457031 255.613281 C 332.820312 255.613281 333.179688 255.648438 333.539062 255.71875 C 333.894531 255.789062 334.242188 255.894531 334.578125 256.035156 C 334.917969 256.171875 335.234375 256.34375 335.539062 256.546875 C 335.839844 256.75 336.121094 256.980469 336.378906 257.238281 C 336.636719 257.496094 336.867188 257.773438 337.070312 258.078125 C 337.273438 258.378906 337.441406 258.699219 337.582031 259.035156 C 337.722656 259.371094 337.828125 259.71875 337.898438 260.078125 C 337.96875 260.433594 338.003906 260.796875 338.003906 261.160156 C 338.003906 261.523438 337.96875 261.882812 337.898438 262.242188 C 337.828125 262.597656 337.722656 262.945312 337.582031 263.28125 C 337.441406 263.621094 337.273438 263.9375 337.070312 264.242188 C 336.867188 264.542969 336.636719 264.824219 336.378906 265.082031 C 336.121094 265.339844 335.839844 265.570312 335.539062 265.773438 C 335.234375 265.976562 334.917969 266.144531 334.578125 266.285156 C 334.242188 266.425781 333.894531 266.53125 333.539062 266.601562 C 333.179688 266.671875 332.820312 266.707031 332.457031 266.707031 Z M 332.457031 266.707031 " fill-opacity="1" fill-rule="nonzero"/><path fill="#f44336" d="M 71.710938 158.523438 C 71.710938 159.160156 71.679688 159.792969 71.617188 160.425781 C 71.554688 161.058594 71.460938 161.6875 71.339844 162.3125 C 71.214844 162.933594 71.058594 163.550781 70.875 164.160156 C 70.691406 164.769531 70.476562 165.367188 70.234375 165.953125 C 69.988281 166.539062 69.71875 167.113281 69.417969 167.675781 C 69.117188 168.238281 68.792969 168.78125 68.4375 169.308594 C 68.085938 169.839844 67.707031 170.347656 67.304688 170.839844 C 66.902344 171.332031 66.472656 171.804688 66.023438 172.253906 C 65.574219 172.703125 65.105469 173.128906 64.613281 173.53125 C 64.121094 173.9375 63.609375 174.316406 63.082031 174.667969 C 62.554688 175.019531 62.007812 175.347656 61.449219 175.648438 C 60.886719 175.949219 60.3125 176.21875 59.726562 176.460938 C 59.136719 176.707031 58.539062 176.917969 57.929688 177.105469 C 57.324219 177.289062 56.707031 177.441406 56.082031 177.566406 C 55.457031 177.691406 54.832031 177.785156 54.199219 177.847656 C 53.566406 177.910156 52.929688 177.941406 52.292969 177.941406 C 51.660156 177.941406 51.023438 177.910156 50.390625 177.847656 C 49.757812 177.785156 49.128906 177.691406 48.507812 177.566406 C 47.882812 177.441406 47.265625 177.289062 46.65625 177.105469 C 46.050781 176.917969 45.453125 176.707031 44.863281 176.460938 C 44.277344 176.21875 43.703125 175.949219 43.140625 175.648438 C 42.582031 175.347656 42.035156 175.019531 41.507812 174.667969 C 40.976562 174.316406 40.46875 173.9375 39.976562 173.53125 C 39.484375 173.128906 39.015625 172.703125 38.5625 172.253906 C 38.113281 171.804688 37.6875 171.332031 37.285156 170.839844 C 36.882812 170.347656 36.503906 169.839844 36.148438 169.308594 C 35.796875 168.78125 35.46875 168.238281 35.171875 167.675781 C 34.871094 167.113281 34.597656 166.539062 34.355469 165.953125 C 34.113281 165.367188 33.898438 164.769531 33.714844 164.160156 C 33.527344 163.550781 33.375 162.933594 33.25 162.3125 C 33.125 161.6875 33.03125 161.058594 32.96875 160.425781 C 32.910156 159.792969 32.878906 159.160156 32.878906 158.523438 C 32.878906 157.886719 32.910156 157.253906 32.96875 156.621094 C 33.03125 155.988281 33.125 155.359375 33.25 154.734375 C 33.375 154.109375 33.527344 153.496094 33.714844 152.886719 C 33.898438 152.277344 34.113281 151.679688 34.355469 151.089844 C 34.597656 150.503906 34.871094 149.929688 35.171875 149.367188 C 35.46875 148.808594 35.796875 148.261719 36.148438 147.734375 C 36.503906 147.207031 36.882812 146.695312 37.285156 146.203125 C 37.6875 145.710938 38.113281 145.242188 38.5625 144.792969 C 39.015625 144.34375 39.484375 143.914062 39.976562 143.511719 C 40.46875 143.109375 40.976562 142.730469 41.507812 142.378906 C 42.035156 142.023438 42.582031 141.699219 43.140625 141.398438 C 43.703125 141.097656 44.277344 140.828125 44.863281 140.582031 C 45.453125 140.339844 46.050781 140.125 46.65625 139.941406 C 47.265625 139.757812 47.882812 139.601562 48.507812 139.476562 C 49.128906 139.355469 49.757812 139.261719 50.390625 139.199219 C 51.023438 139.136719 51.660156 139.105469 52.292969 139.105469 C 52.929688 139.105469 53.566406 139.136719 54.199219 139.199219 C 54.832031 139.261719 55.457031 139.355469 56.082031 139.476562 C 56.707031 139.601562 57.324219 139.757812 57.929688 139.941406 C 58.539062 140.125 59.136719 140.339844 59.726562 140.582031 C 60.3125 140.828125 60.886719 141.097656 61.449219 141.398438 C 62.007812 141.699219 62.554688 142.023438 63.082031 142.378906 C 63.609375 142.730469 64.121094 143.109375 64.613281 143.511719 C 65.105469 143.914062 65.574219 144.34375 66.023438 144.792969 C 66.472656 145.242188 66.902344 145.710938 67.304688 146.203125 C 67.707031 146.695312 68.085938 147.207031 68.4375 147.734375 C 68.792969 148.261719 69.117188 148.808594 69.417969 149.367188 C 69.71875 149.929688 69.988281 150.503906 70.234375 151.089844 C 70.476562 151.679688 70.691406 152.277344 70.875 152.886719 C 71.058594 153.496094 71.214844 154.109375 71.339844 154.734375 C 71.460938 155.359375 71.554688 155.988281 71.617188 156.621094 C 71.679688 157.253906 71.710938 157.886719 71.710938 158.523438 Z M 71.710938 158.523438 " fill-opacity="1" fill-rule="nonzero"/><path fill="#fbc02d" d="M 127.1875 108.589844 C 127.1875 109.226562 127.15625 109.863281 127.09375 110.496094 C 127.035156 111.128906 126.941406 111.753906 126.816406 112.378906 C 126.691406 113.003906 126.539062 113.621094 126.351562 114.226562 C 126.167969 114.835938 125.953125 115.433594 125.710938 116.023438 C 125.46875 116.609375 125.195312 117.183594 124.894531 117.746094 C 124.597656 118.304688 124.269531 118.851562 123.917969 119.378906 C 123.5625 119.90625 123.183594 120.417969 122.78125 120.910156 C 122.378906 121.402344 121.953125 121.871094 121.503906 122.320312 C 121.050781 122.769531 120.582031 123.199219 120.089844 123.601562 C 119.597656 124.003906 119.089844 124.382812 118.558594 124.738281 C 118.03125 125.089844 117.484375 125.417969 116.925781 125.714844 C 116.363281 126.015625 115.789062 126.289062 115.203125 126.53125 C 114.613281 126.773438 114.015625 126.988281 113.410156 127.171875 C 112.800781 127.355469 112.183594 127.511719 111.558594 127.636719 C 110.9375 127.761719 110.308594 127.851562 109.675781 127.914062 C 109.042969 127.976562 108.40625 128.007812 107.773438 128.007812 C 107.136719 128.007812 106.5 127.976562 105.867188 127.914062 C 105.234375 127.851562 104.609375 127.761719 103.984375 127.636719 C 103.359375 127.511719 102.742188 127.355469 102.136719 127.171875 C 101.527344 126.988281 100.929688 126.773438 100.339844 126.53125 C 99.753906 126.289062 99.179688 126.015625 98.617188 125.714844 C 98.058594 125.417969 97.511719 125.089844 96.984375 124.738281 C 96.457031 124.382812 95.945312 124.003906 95.453125 123.601562 C 94.960938 123.199219 94.492188 122.769531 94.042969 122.320312 C 93.59375 121.871094 93.164062 121.402344 92.761719 120.910156 C 92.359375 120.417969 91.980469 119.90625 91.628906 119.378906 C 91.273438 118.851562 90.949219 118.304688 90.648438 117.746094 C 90.347656 117.183594 90.078125 116.609375 89.832031 116.023438 C 89.589844 115.433594 89.375 114.835938 89.191406 114.226562 C 89.007812 113.621094 88.851562 113.003906 88.726562 112.378906 C 88.605469 111.753906 88.511719 111.128906 88.449219 110.496094 C 88.386719 109.863281 88.355469 109.226562 88.355469 108.589844 C 88.355469 107.957031 88.386719 107.320312 88.449219 106.6875 C 88.511719 106.054688 88.605469 105.425781 88.726562 104.804688 C 88.851562 104.179688 89.007812 103.5625 89.191406 102.953125 C 89.375 102.347656 89.589844 101.746094 89.832031 101.160156 C 90.078125 100.574219 90.347656 100 90.648438 99.4375 C 90.949219 98.875 91.273438 98.332031 91.628906 97.804688 C 91.980469 97.273438 92.359375 96.765625 92.761719 96.273438 C 93.164062 95.78125 93.59375 95.308594 94.042969 94.859375 C 94.492188 94.410156 94.960938 93.984375 95.453125 93.582031 C 95.945312 93.175781 96.457031 92.800781 96.984375 92.445312 C 97.511719 92.09375 98.058594 91.765625 98.617188 91.464844 C 99.179688 91.167969 99.753906 90.894531 100.339844 90.652344 C 100.929688 90.40625 101.527344 90.195312 102.136719 90.007812 C 102.742188 89.824219 103.359375 89.671875 103.984375 89.546875 C 104.609375 89.421875 105.234375 89.328125 105.867188 89.265625 C 106.5 89.203125 107.136719 89.171875 107.773438 89.171875 C 108.40625 89.171875 109.042969 89.203125 109.675781 89.265625 C 110.308594 89.328125 110.9375 89.421875 111.558594 89.546875 C 112.183594 89.671875 112.800781 89.824219 113.410156 90.007812 C 114.015625 90.195312 114.613281 90.40625 115.203125 90.652344 C 115.789062 90.894531 116.363281 91.167969 116.925781 91.464844 C 117.484375 91.765625 118.03125 92.09375 118.558594 92.445312 C 119.089844 92.800781 119.597656 93.175781 120.089844 93.582031 C 120.582031 93.984375 121.050781 94.410156 121.503906 94.859375 C 121.953125 95.308594 122.378906 95.78125 122.78125 96.273438 C 123.183594 96.765625 123.5625 97.273438 123.917969 97.804688 C 124.269531 98.332031 124.597656 98.875 124.894531 99.4375 C 125.195312 100 125.46875 100.574219 125.710938 101.160156 C 125.953125 101.746094 126.167969 102.347656 126.351562 102.953125 C 126.539062 103.5625 126.691406 104.179688 126.816406 104.804688 C 126.941406 105.425781 127.035156 106.054688 127.09375 106.6875 C 127.15625 107.320312 127.1875 107.957031 127.1875 108.589844 Z M 127.1875 108.589844 " fill-opacity="1" fill-rule="nonzero"/><path fill="#1976d2" d="M 238.144531 103.042969 C 238.144531 103.679688 238.113281 104.3125 238.050781 104.945312 C 237.988281 105.578125 237.894531 106.207031 237.769531 106.832031 C 237.648438 107.453125 237.492188 108.070312 237.308594 108.679688 C 237.125 109.289062 236.910156 109.886719 236.667969 110.472656 C 236.421875 111.0625 236.152344 111.636719 235.851562 112.195312 C 235.550781 112.757812 235.226562 113.300781 234.871094 113.832031 C 234.519531 114.359375 234.140625 114.871094 233.738281 115.363281 C 233.332031 115.851562 232.90625 116.324219 232.457031 116.773438 C 232.007812 117.222656 231.535156 117.648438 231.046875 118.054688 C 230.554688 118.457031 230.042969 118.835938 229.515625 119.1875 C 228.984375 119.542969 228.441406 119.867188 227.878906 120.167969 C 227.320312 120.46875 226.746094 120.738281 226.15625 120.984375 C 225.570312 121.226562 224.972656 121.441406 224.363281 121.625 C 223.753906 121.808594 223.140625 121.964844 222.515625 122.085938 C 221.890625 122.210938 221.261719 122.304688 220.628906 122.367188 C 219.996094 122.429688 219.363281 122.460938 218.726562 122.460938 C 218.089844 122.460938 217.457031 122.429688 216.824219 122.367188 C 216.191406 122.304688 215.5625 122.210938 214.9375 122.085938 C 214.316406 121.964844 213.699219 121.808594 213.089844 121.625 C 212.480469 121.441406 211.882812 121.226562 211.296875 120.984375 C 210.710938 120.738281 210.136719 120.46875 209.574219 120.167969 C 209.011719 119.867188 208.46875 119.542969 207.941406 119.1875 C 207.410156 118.835938 206.902344 118.457031 206.410156 118.054688 C 205.917969 117.648438 205.445312 117.222656 204.996094 116.773438 C 204.546875 116.324219 204.121094 115.851562 203.71875 115.363281 C 203.3125 114.871094 202.9375 114.359375 202.582031 113.832031 C 202.230469 113.300781 201.902344 112.757812 201.601562 112.195312 C 201.304688 111.636719 201.03125 111.0625 200.789062 110.472656 C 200.542969 109.886719 200.332031 109.289062 200.144531 108.679688 C 199.960938 108.070312 199.808594 107.453125 199.683594 106.832031 C 199.558594 106.207031 199.464844 105.578125 199.402344 104.945312 C 199.339844 104.3125 199.308594 103.679688 199.308594 103.042969 C 199.308594 102.40625 199.339844 101.773438 199.402344 101.140625 C 199.464844 100.507812 199.558594 99.878906 199.683594 99.253906 C 199.808594 98.632812 199.960938 98.015625 200.144531 97.40625 C 200.332031 96.796875 200.542969 96.199219 200.789062 95.613281 C 201.03125 95.023438 201.304688 94.449219 201.601562 93.890625 C 201.902344 93.328125 202.230469 92.785156 202.582031 92.253906 C 202.9375 91.726562 203.3125 91.214844 203.71875 90.722656 C 204.121094 90.234375 204.546875 89.761719 204.996094 89.3125 C 205.445312 88.863281 205.917969 88.4375 206.410156 88.03125 C 206.902344 87.628906 207.410156 87.25 207.941406 86.898438 C 208.46875 86.542969 209.011719 86.21875 209.574219 85.917969 C 210.136719 85.617188 210.710938 85.347656 211.296875 85.101562 C 211.882812 84.859375 212.480469 84.644531 213.089844 84.460938 C 213.699219 84.277344 214.316406 84.121094 214.9375 84 C 215.5625 83.875 216.191406 83.78125 216.824219 83.71875 C 217.457031 83.65625 218.089844 83.625 218.726562 83.625 C 219.363281 83.625 219.996094 83.65625 220.628906 83.71875 C 221.261719 83.78125 221.890625 83.875 222.515625 84 C 223.140625 84.121094 223.753906 84.277344 224.363281 84.460938 C 224.972656 84.644531 225.570312 84.859375 226.15625 85.101562 C 226.746094 85.347656 227.320312 85.617188 227.878906 85.917969 C 228.441406 86.21875 228.984375 86.542969 229.515625 86.898438 C 230.042969 87.25 230.554688 87.628906 231.046875 88.03125 C 231.535156 88.4375 232.007812 88.863281 232.457031 89.3125 C 232.90625 89.761719 233.332031 90.234375 233.738281 90.722656 C 234.140625 91.214844 234.519531 91.726562 234.871094 92.253906 C 235.226562 92.785156 235.550781 93.328125 235.851562 93.890625 C 236.152344 94.449219 236.421875 95.023438 236.667969 95.613281 C 236.910156 96.199219 237.125 96.796875 237.308594 97.40625 C 237.492188 98.015625 237.648438 98.632812 237.769531 99.253906 C 237.894531 99.878906 237.988281 100.507812 238.050781 101.140625 C 238.113281 101.773438 238.144531 102.40625 238.144531 103.042969 Z M 238.144531 103.042969 " fill-opacity="1" fill-rule="nonzero"/><path fill="#7cb342" d="M 177.117188 152.976562 C 177.117188 153.609375 177.089844 154.246094 177.027344 154.878906 C 176.964844 155.511719 176.871094 156.140625 176.746094 156.761719 C 176.621094 157.386719 176.46875 158.003906 176.28125 158.609375 C 176.097656 159.21875 175.882812 159.816406 175.640625 160.40625 C 175.398438 160.992188 175.125 161.566406 174.828125 162.128906 C 174.527344 162.6875 174.199219 163.234375 173.847656 163.761719 C 173.492188 164.292969 173.113281 164.800781 172.710938 165.292969 C 172.308594 165.785156 171.882812 166.253906 171.433594 166.703125 C 170.980469 167.15625 170.511719 167.582031 170.019531 167.984375 C 169.527344 168.386719 169.019531 168.765625 168.488281 169.121094 C 167.960938 169.472656 167.414062 169.800781 166.855469 170.097656 C 166.292969 170.398438 165.71875 170.671875 165.132812 170.914062 C 164.546875 171.15625 163.945312 171.371094 163.339844 171.554688 C 162.730469 171.742188 162.113281 171.894531 161.488281 172.019531 C 160.867188 172.144531 160.238281 172.238281 159.605469 172.300781 C 158.972656 172.359375 158.335938 172.390625 157.703125 172.390625 C 157.066406 172.390625 156.429688 172.359375 155.796875 172.300781 C 155.164062 172.238281 154.539062 172.144531 153.914062 172.019531 C 153.289062 171.894531 152.675781 171.742188 152.066406 171.554688 C 151.457031 171.371094 150.859375 171.15625 150.269531 170.914062 C 149.683594 170.671875 149.109375 170.398438 148.546875 170.097656 C 147.988281 169.800781 147.441406 169.472656 146.914062 169.121094 C 146.386719 168.765625 145.875 168.386719 145.382812 167.984375 C 144.890625 167.582031 144.421875 167.15625 143.972656 166.703125 C 143.523438 166.253906 143.09375 165.785156 142.691406 165.292969 C 142.289062 164.800781 141.910156 164.292969 141.558594 163.761719 C 141.203125 163.234375 140.878906 162.6875 140.578125 162.128906 C 140.277344 161.566406 140.007812 160.992188 139.761719 160.40625 C 139.519531 159.816406 139.304688 159.21875 139.121094 158.609375 C 138.9375 158.003906 138.78125 157.386719 138.65625 156.761719 C 138.535156 156.140625 138.441406 155.511719 138.378906 154.878906 C 138.316406 154.246094 138.285156 153.609375 138.285156 152.976562 C 138.285156 152.339844 138.316406 151.703125 138.378906 151.070312 C 138.441406 150.4375 138.535156 149.808594 138.65625 149.1875 C 138.78125 148.5625 138.9375 147.945312 139.121094 147.339844 C 139.304688 146.730469 139.519531 146.132812 139.761719 145.542969 C 140.007812 144.957031 140.277344 144.382812 140.578125 143.820312 C 140.878906 143.261719 141.203125 142.714844 141.558594 142.1875 C 141.910156 141.65625 142.289062 141.148438 142.691406 140.65625 C 143.09375 140.164062 143.523438 139.695312 143.972656 139.246094 C 144.421875 138.792969 144.890625 138.367188 145.382812 137.964844 C 145.875 137.5625 146.386719 137.183594 146.914062 136.828125 C 147.441406 136.476562 147.988281 136.148438 148.546875 135.851562 C 149.109375 135.550781 149.683594 135.277344 150.269531 135.035156 C 150.859375 134.792969 151.457031 134.578125 152.066406 134.394531 C 152.675781 134.207031 153.289062 134.054688 153.914062 133.929688 C 154.539062 133.804688 155.164062 133.710938 155.796875 133.648438 C 156.429688 133.589844 157.066406 133.558594 157.703125 133.558594 C 158.335938 133.558594 158.972656 133.589844 159.605469 133.648438 C 160.238281 133.710938 160.867188 133.804688 161.488281 133.929688 C 162.113281 134.054688 162.730469 134.207031 163.339844 134.394531 C 163.945312 134.578125 164.546875 134.792969 165.132812 135.035156 C 165.71875 135.277344 166.292969 135.550781 166.855469 135.851562 C 167.414062 136.148438 167.960938 136.476562 168.488281 136.828125 C 169.019531 137.183594 169.527344 137.5625 170.019531 137.964844 C 170.511719 138.367188 170.980469 138.792969 171.433594 139.246094 C 171.882812 139.695312 172.308594 140.164062 172.710938 140.65625 C 173.113281 141.148438 173.492188 141.65625 173.847656 142.1875 C 174.199219 142.714844 174.527344 143.261719 174.828125 143.820312 C 175.125 144.382812 175.398438 144.957031 175.640625 145.542969 C 175.882812 146.132812 176.097656 146.730469 176.28125 147.339844 C 176.46875 147.945312 176.621094 148.5625 176.746094 149.1875 C 176.871094 149.808594 176.964844 150.4375 177.027344 151.070312 C 177.089844 151.703125 177.117188 152.339844 177.117188 152.976562 Z M 177.117188 152.976562 " fill-opacity="1" fill-rule="nonzero"/></svg>