<svg xmlns="http://www.w3.org/2000/svg" xmlns:xlink="http://www.w3.org/1999/xlink" width="512" zoomAndPan="magnify" viewBox="0 0 384 383.999986" height="512" preserveAspectRatio="xMidYMid meet" version="1.0"><defs><g/><clipPath id="51bf9d1909"><path d="M 103.597656 103.597656 L 280.597656 103.597656 L 280.597656 280.597656 L 103.597656 280.597656 Z M 103.597656 103.597656 " clip-rule="nonzero"/></clipPath></defs><g fill="#000000" fill-opacity="1"><g transform="translate(169.748432, 197.624984)"><g><path d="M 4.4375 3.65625 C 3.082031 3.65625 2.09375 3.425781 1.46875 2.96875 C 0.84375 2.519531 0.53125 1.921875 0.53125 1.171875 C 0.53125 0.691406 0.675781 0.304688 0.96875 0.015625 C 1.257812 -0.273438 1.679688 -0.484375 2.234375 -0.609375 L 2.234375 -0.765625 C 1.972656 -0.921875 1.773438 -1.097656 1.640625 -1.296875 C 1.503906 -1.503906 1.4375 -1.75 1.4375 -2.03125 C 1.4375 -2.363281 1.539062 -2.632812 1.75 -2.84375 C 1.96875 -3.050781 2.285156 -3.207031 2.703125 -3.3125 L 2.703125 -3.484375 C 1.765625 -3.972656 1.296875 -4.773438 1.296875 -5.890625 C 1.296875 -6.453125 1.421875 -6.953125 1.671875 -7.390625 C 1.929688 -7.828125 2.296875 -8.164062 2.765625 -8.40625 C 3.242188 -8.65625 3.796875 -8.78125 4.421875 -8.78125 C 5.148438 -8.78125 5.753906 -8.625 6.234375 -8.3125 C 6.421875 -8.507812 6.554688 -8.722656 6.640625 -8.953125 C 6.734375 -9.191406 6.796875 -9.457031 6.828125 -9.75 L 6.984375 -9.84375 L 8.03125 -9.59375 C 7.976562 -9.15625 7.847656 -8.785156 7.640625 -8.484375 C 7.429688 -8.179688 7.132812 -7.929688 6.75 -7.734375 L 6.75 -7.578125 C 7.019531 -7.359375 7.222656 -7.097656 7.359375 -6.796875 C 7.492188 -6.503906 7.5625 -6.164062 7.5625 -5.78125 C 7.5625 -5.238281 7.429688 -4.75 7.171875 -4.3125 C 6.910156 -3.882812 6.539062 -3.546875 6.0625 -3.296875 C 5.59375 -3.046875 5.046875 -2.921875 4.421875 -2.921875 C 4.347656 -2.921875 4.21875 -2.925781 4.03125 -2.9375 C 3.820312 -2.945312 3.671875 -2.953125 3.578125 -2.953125 C 3.304688 -2.953125 3.085938 -2.878906 2.921875 -2.734375 C 2.765625 -2.597656 2.6875 -2.421875 2.6875 -2.203125 C 2.6875 -1.929688 2.769531 -1.734375 2.9375 -1.609375 C 3.113281 -1.484375 3.40625 -1.410156 3.8125 -1.390625 L 5.84375 -1.328125 C 6.726562 -1.296875 7.378906 -1.085938 7.796875 -0.703125 C 8.222656 -0.328125 8.4375 0.207031 8.4375 0.90625 C 8.4375 1.414062 8.296875 1.878906 8.015625 2.296875 C 7.742188 2.710938 7.304688 3.039062 6.703125 3.28125 C 6.109375 3.53125 5.351562 3.65625 4.4375 3.65625 Z M 4.421875 -4.015625 C 5.035156 -4.015625 5.507812 -4.171875 5.84375 -4.484375 C 6.175781 -4.804688 6.34375 -5.253906 6.34375 -5.828125 C 6.34375 -6.421875 6.175781 -6.878906 5.84375 -7.203125 C 5.507812 -7.523438 5.035156 -7.6875 4.421875 -7.6875 C 3.804688 -7.6875 3.335938 -7.523438 3.015625 -7.203125 C 2.691406 -6.890625 2.53125 -6.429688 2.53125 -5.828125 C 2.53125 -5.253906 2.691406 -4.804688 3.015625 -4.484375 C 3.335938 -4.171875 3.804688 -4.015625 4.421875 -4.015625 Z M 4.4375 2.5625 C 5.070312 2.5625 5.59375 2.488281 6 2.34375 C 6.40625 2.207031 6.695312 2.023438 6.875 1.796875 C 7.050781 1.566406 7.140625 1.304688 7.140625 1.015625 C 7.140625 0.765625 7.085938 0.5625 6.984375 0.40625 C 6.890625 0.25 6.734375 0.128906 6.515625 0.046875 C 6.304688 -0.0351562 6.019531 -0.0859375 5.65625 -0.109375 L 3.71875 -0.203125 L 3.453125 -0.203125 C 2.367188 -0.179688 1.828125 0.238281 1.828125 1.0625 C 1.828125 2.0625 2.695312 2.5625 4.4375 2.5625 Z M 4.4375 2.5625 "/></g></g></g><g fill="#000000" fill-opacity="1"><g transform="translate(178.574401, 197.624984)"><g><path d="M 2.140625 -10.28125 C 1.867188 -10.28125 1.648438 -10.363281 1.484375 -10.53125 C 1.316406 -10.707031 1.234375 -10.925781 1.234375 -11.1875 C 1.234375 -11.445312 1.316406 -11.660156 1.484375 -11.828125 C 1.648438 -11.992188 1.867188 -12.078125 2.140625 -12.078125 C 2.410156 -12.078125 2.628906 -11.992188 2.796875 -11.828125 C 2.972656 -11.660156 3.0625 -11.445312 3.0625 -11.1875 C 3.0625 -10.925781 2.972656 -10.707031 2.796875 -10.53125 C 2.628906 -10.363281 2.410156 -10.28125 2.140625 -10.28125 Z M 0.421875 3.65625 C 0.148438 3.65625 -0.0859375 3.632812 -0.296875 3.59375 C -0.503906 3.5625 -0.707031 3.507812 -0.90625 3.4375 L -0.703125 2.453125 L -0.5625 2.40625 C -0.300781 2.5 -0.03125 2.546875 0.25 2.546875 C 0.65625 2.546875 0.960938 2.410156 1.171875 2.140625 C 1.390625 1.878906 1.5 1.5 1.5 1 L 1.5 -8.625 L 2.78125 -8.625 L 2.78125 0.953125 C 2.78125 1.816406 2.570312 2.484375 2.15625 2.953125 C 1.75 3.421875 1.171875 3.65625 0.421875 3.65625 Z M 0.421875 3.65625 "/></g></g></g><g fill="#000000" fill-opacity="1"><g transform="translate(182.846801, 197.624984)"><g><path d="M 1.5 0 L 1.5 -12.078125 L 2.78125 -12.078125 L 2.78125 -5.03125 L 2.984375 -5.03125 L 6.1875 -8.625 L 7.53125 -8.625 L 7.53125 -8.4375 L 4.109375 -4.578125 L 7.859375 -0.203125 L 7.859375 0 L 6.4375 0 L 2.984375 -3.984375 L 2.78125 -3.984375 L 2.78125 0 Z M 1.5 0 "/></g></g></g><g fill="#000000" fill-opacity="1"><g transform="translate(190.860468, 197.624984)"><g><path d="M 4.4375 3.65625 C 3.082031 3.65625 2.09375 3.425781 1.46875 2.96875 C 0.84375 2.519531 0.53125 1.921875 0.53125 1.171875 C 0.53125 0.691406 0.675781 0.304688 0.96875 0.015625 C 1.257812 -0.273438 1.679688 -0.484375 2.234375 -0.609375 L 2.234375 -0.765625 C 1.972656 -0.921875 1.773438 -1.097656 1.640625 -1.296875 C 1.503906 -1.503906 1.4375 -1.75 1.4375 -2.03125 C 1.4375 -2.363281 1.539062 -2.632812 1.75 -2.84375 C 1.96875 -3.050781 2.285156 -3.207031 2.703125 -3.3125 L 2.703125 -3.484375 C 1.765625 -3.972656 1.296875 -4.773438 1.296875 -5.890625 C 1.296875 -6.453125 1.421875 -6.953125 1.671875 -7.390625 C 1.929688 -7.828125 2.296875 -8.164062 2.765625 -8.40625 C 3.242188 -8.65625 3.796875 -8.78125 4.421875 -8.78125 C 5.148438 -8.78125 5.753906 -8.625 6.234375 -8.3125 C 6.421875 -8.507812 6.554688 -8.722656 6.640625 -8.953125 C 6.734375 -9.191406 6.796875 -9.457031 6.828125 -9.75 L 6.984375 -9.84375 L 8.03125 -9.59375 C 7.976562 -9.15625 7.847656 -8.785156 7.640625 -8.484375 C 7.429688 -8.179688 7.132812 -7.929688 6.75 -7.734375 L 6.75 -7.578125 C 7.019531 -7.359375 7.222656 -7.097656 7.359375 -6.796875 C 7.492188 -6.503906 7.5625 -6.164062 7.5625 -5.78125 C 7.5625 -5.238281 7.429688 -4.75 7.171875 -4.3125 C 6.910156 -3.882812 6.539062 -3.546875 6.0625 -3.296875 C 5.59375 -3.046875 5.046875 -2.921875 4.421875 -2.921875 C 4.347656 -2.921875 4.21875 -2.925781 4.03125 -2.9375 C 3.820312 -2.945312 3.671875 -2.953125 3.578125 -2.953125 C 3.304688 -2.953125 3.085938 -2.878906 2.921875 -2.734375 C 2.765625 -2.597656 2.6875 -2.421875 2.6875 -2.203125 C 2.6875 -1.929688 2.769531 -1.734375 2.9375 -1.609375 C 3.113281 -1.484375 3.40625 -1.410156 3.8125 -1.390625 L 5.84375 -1.328125 C 6.726562 -1.296875 7.378906 -1.085938 7.796875 -0.703125 C 8.222656 -0.328125 8.4375 0.207031 8.4375 0.90625 C 8.4375 1.414062 8.296875 1.878906 8.015625 2.296875 C 7.742188 2.710938 7.304688 3.039062 6.703125 3.28125 C 6.109375 3.53125 5.351562 3.65625 4.4375 3.65625 Z M 4.421875 -4.015625 C 5.035156 -4.015625 5.507812 -4.171875 5.84375 -4.484375 C 6.175781 -4.804688 6.34375 -5.253906 6.34375 -5.828125 C 6.34375 -6.421875 6.175781 -6.878906 5.84375 -7.203125 C 5.507812 -7.523438 5.035156 -7.6875 4.421875 -7.6875 C 3.804688 -7.6875 3.335938 -7.523438 3.015625 -7.203125 C 2.691406 -6.890625 2.53125 -6.429688 2.53125 -5.828125 C 2.53125 -5.253906 2.691406 -4.804688 3.015625 -4.484375 C 3.335938 -4.171875 3.804688 -4.015625 4.421875 -4.015625 Z M 4.4375 2.5625 C 5.070312 2.5625 5.59375 2.488281 6 2.34375 C 6.40625 2.207031 6.695312 2.023438 6.875 1.796875 C 7.050781 1.566406 7.140625 1.304688 7.140625 1.015625 C 7.140625 0.765625 7.085938 0.5625 6.984375 0.40625 C 6.890625 0.25 6.734375 0.128906 6.515625 0.046875 C 6.304688 -0.0351562 6.019531 -0.0859375 5.65625 -0.109375 L 3.71875 -0.203125 L 3.453125 -0.203125 C 2.367188 -0.179688 1.828125 0.238281 1.828125 1.0625 C 1.828125 2.0625 2.695312 2.5625 4.4375 2.5625 Z M 4.4375 2.5625 "/></g></g></g><g fill="#000000" fill-opacity="1"><g transform="translate(199.686437, 197.624984)"><g><path d="M 4.46875 0.171875 C 3.78125 0.171875 3.171875 0.00390625 2.640625 -0.328125 C 2.109375 -0.660156 1.691406 -1.160156 1.390625 -1.828125 C 1.097656 -2.492188 0.953125 -3.320312 0.953125 -4.3125 C 0.953125 -5.289062 1.109375 -6.113281 1.421875 -6.78125 C 1.734375 -7.457031 2.160156 -7.957031 2.703125 -8.28125 C 3.253906 -8.613281 3.894531 -8.78125 4.625 -8.78125 C 5.195312 -8.78125 5.710938 -8.671875 6.171875 -8.453125 C 6.628906 -8.242188 7.019531 -7.890625 7.34375 -7.390625 L 7.515625 -7.421875 L 7.515625 -12.078125 L 8.78125 -12.078125 L 8.78125 0 L 7.515625 0 L 7.515625 -1.265625 L 7.34375 -1.296875 C 7.0625 -0.867188 6.679688 -0.515625 6.203125 -0.234375 C 5.722656 0.0351562 5.144531 0.171875 4.46875 0.171875 Z M 4.875 -0.984375 C 5.675781 -0.984375 6.316406 -1.253906 6.796875 -1.796875 C 7.273438 -2.347656 7.515625 -3.1875 7.515625 -4.3125 C 7.515625 -5.4375 7.273438 -6.269531 6.796875 -6.8125 C 6.316406 -7.363281 5.675781 -7.640625 4.875 -7.640625 C 4.039062 -7.640625 3.398438 -7.367188 2.953125 -6.828125 C 2.503906 -6.296875 2.28125 -5.457031 2.28125 -4.3125 C 2.28125 -2.09375 3.144531 -0.984375 4.875 -0.984375 Z M 4.875 -0.984375 "/></g></g></g><g fill="#000000" fill-opacity="1"><g transform="translate(209.972993, 197.624984)"><g><path d="M 2.140625 -10.28125 C 1.867188 -10.28125 1.648438 -10.363281 1.484375 -10.53125 C 1.316406 -10.707031 1.234375 -10.925781 1.234375 -11.1875 C 1.234375 -11.445312 1.316406 -11.660156 1.484375 -11.828125 C 1.648438 -11.992188 1.867188 -12.078125 2.140625 -12.078125 C 2.410156 -12.078125 2.628906 -11.992188 2.796875 -11.828125 C 2.972656 -11.660156 3.0625 -11.445312 3.0625 -11.1875 C 3.0625 -10.925781 2.972656 -10.707031 2.796875 -10.53125 C 2.628906 -10.363281 2.410156 -10.28125 2.140625 -10.28125 Z M 0.421875 3.65625 C 0.148438 3.65625 -0.0859375 3.632812 -0.296875 3.59375 C -0.503906 3.5625 -0.707031 3.507812 -0.90625 3.4375 L -0.703125 2.453125 L -0.5625 2.40625 C -0.300781 2.5 -0.03125 2.546875 0.25 2.546875 C 0.65625 2.546875 0.960938 2.410156 1.171875 2.140625 C 1.390625 1.878906 1.5 1.5 1.5 1 L 1.5 -8.625 L 2.78125 -8.625 L 2.78125 0.953125 C 2.78125 1.816406 2.570312 2.484375 2.15625 2.953125 C 1.75 3.421875 1.171875 3.65625 0.421875 3.65625 Z M 0.421875 3.65625 "/></g></g></g><path fill="#7bc2cc" d="M 106.363281 106.363281 L 277.832031 106.363281 L 277.832031 277.832031 L 106.363281 277.832031 Z M 106.363281 106.363281 " fill-opacity="1" fill-rule="nonzero"/><path fill="#ffd572" d="M 117.425781 117.425781 L 172.738281 117.425781 L 172.738281 172.738281 L 117.425781 172.738281 Z M 117.425781 117.425781 " fill-opacity="1" fill-rule="nonzero"/><path fill="#e2e6e8" d="M 117.425781 183.800781 L 172.738281 183.800781 L 172.738281 228.050781 L 117.425781 228.050781 Z M 117.425781 183.800781 " fill-opacity="1" fill-rule="nonzero"/><path fill="#68607c" d="M 183.800781 117.425781 L 266.769531 117.425781 L 266.769531 211.457031 L 183.800781 211.457031 Z M 183.800781 117.425781 " fill-opacity="1" fill-rule="nonzero"/><path fill="#4e9bb9" d="M 183.800781 222.519531 L 266.769531 222.519531 L 266.769531 266.769531 L 183.800781 266.769531 Z M 183.800781 222.519531 " fill-opacity="1" fill-rule="nonzero"/><path fill="#ed8383" d="M 266.769531 189.332031 L 258.472656 161.675781 L 250.175781 169.972656 L 241.878906 145.082031 L 233.582031 150.613281 L 222.519531 134.019531 L 216.988281 172.738281 L 211.457031 167.207031 L 205.925781 175.503906 L 197.628906 169.972656 L 183.800781 181.035156 L 183.800781 211.457031 L 266.769531 211.457031 Z M 266.769531 189.332031 " fill-opacity="1" fill-rule="nonzero"/><g clip-path="url(#51bf9d1909)"><path fill="#3b3344" d="M 277.832031 103.597656 L 106.363281 103.597656 C 104.835938 103.597656 103.597656 104.832031 103.597656 106.363281 L 103.597656 277.832031 C 103.597656 279.359375 104.835938 280.597656 106.363281 280.597656 L 277.832031 280.597656 C 279.355469 280.597656 280.597656 279.359375 280.597656 277.832031 L 280.597656 106.363281 C 280.597656 104.832031 279.355469 103.597656 277.832031 103.597656 Z M 275.066406 275.066406 L 109.128906 275.066406 L 109.128906 109.128906 L 275.066406 109.128906 Z M 275.066406 275.066406 " fill-opacity="1" fill-rule="nonzero"/></g><path fill="#3b3344" d="M 117.425781 178.269531 L 172.738281 178.269531 C 174.261719 178.269531 175.503906 177.03125 175.503906 175.503906 L 175.503906 120.191406 C 175.503906 118.660156 174.261719 117.425781 172.738281 117.425781 L 117.425781 117.425781 C 115.898438 117.425781 114.660156 118.660156 114.660156 120.191406 L 114.660156 175.503906 C 114.660156 177.03125 115.898438 178.269531 117.425781 178.269531 Z M 120.191406 122.957031 L 169.972656 122.957031 L 169.972656 172.738281 L 120.191406 172.738281 Z M 120.191406 122.957031 " fill-opacity="1" fill-rule="nonzero"/><path fill="#3b3344" d="M 117.425781 233.582031 L 172.738281 233.582031 C 174.261719 233.582031 175.503906 232.34375 175.503906 230.816406 L 175.503906 186.566406 C 175.503906 185.035156 174.261719 183.800781 172.738281 183.800781 L 117.425781 183.800781 C 115.898438 183.800781 114.660156 185.035156 114.660156 186.566406 L 114.660156 230.816406 C 114.660156 232.34375 115.898438 233.582031 117.425781 233.582031 Z M 120.191406 189.332031 L 169.972656 189.332031 L 169.972656 228.050781 L 120.191406 228.050781 Z M 120.191406 189.332031 " fill-opacity="1" fill-rule="nonzero"/><path fill="#3b3344" d="M 183.800781 214.222656 L 266.769531 214.222656 C 268.292969 214.222656 269.535156 212.984375 269.535156 211.457031 L 269.535156 117.425781 C 269.535156 115.894531 268.292969 114.660156 266.769531 114.660156 L 183.800781 114.660156 C 182.273438 114.660156 181.035156 115.894531 181.035156 117.425781 L 181.035156 211.457031 C 181.035156 212.984375 182.273438 214.222656 183.800781 214.222656 Z M 186.566406 208.691406 L 186.566406 182.363281 L 197.777344 173.390625 L 204.390625 177.804688 C 205.660156 178.648438 207.382812 178.304688 208.226562 177.039062 L 211.886719 171.546875 L 215.035156 174.695312 C 215.773438 175.4375 216.871094 175.695312 217.863281 175.359375 C 218.855469 175.03125 219.578125 174.167969 219.722656 173.128906 L 224.234375 141.578125 L 231.28125 152.148438 C 232.125 153.414062 233.839844 153.757812 235.117188 152.914062 L 240.402344 149.390625 L 247.550781 170.847656 C 247.855469 171.757812 248.609375 172.445312 249.539062 172.664062 C 250.476562 172.878906 251.453125 172.605469 252.132812 171.925781 L 257.15625 166.902344 L 264.003906 189.738281 L 264.003906 208.691406 Z M 264.003906 120.191406 L 264.003906 170.484375 L 261.121094 160.878906 C 260.839844 159.949219 260.089844 159.230469 259.148438 158.992188 C 258.207031 158.757812 257.207031 159.03125 256.515625 159.71875 L 251.382812 164.847656 L 244.5 144.203125 C 244.226562 143.386719 243.589844 142.742188 242.777344 142.460938 C 241.964844 142.183594 241.0625 142.296875 240.34375 142.777344 L 234.347656 146.773438 L 224.820312 132.480469 C 224.1875 131.527344 223.03125 131.0625 221.910156 131.316406 C 220.792969 131.570312 219.945312 132.488281 219.78125 133.621094 L 215.035156 166.867188 L 213.414062 165.246094 C 212.828125 164.660156 212.023438 164.375 211.183594 164.449219 C 210.359375 164.53125 209.617188 164.980469 209.15625 165.667969 L 205.160156 171.664062 L 199.164062 167.667969 C 198.164062 167 196.84375 167.054688 195.902344 167.808594 L 186.566406 175.277344 L 186.566406 120.191406 Z M 264.003906 120.191406 " fill-opacity="1" fill-rule="nonzero"/><path fill="#3b3344" d="M 183.800781 269.535156 L 266.769531 269.535156 C 268.292969 269.535156 269.535156 268.296875 269.535156 266.769531 L 269.535156 222.519531 C 269.535156 220.988281 268.292969 219.753906 266.769531 219.753906 L 183.800781 219.753906 C 182.273438 219.753906 181.035156 220.988281 181.035156 222.519531 L 181.035156 266.769531 C 181.035156 268.296875 182.273438 269.535156 183.800781 269.535156 Z M 186.566406 225.285156 L 264.003906 225.285156 L 264.003906 264.003906 L 186.566406 264.003906 Z M 186.566406 225.285156 " fill-opacity="1" fill-rule="nonzero"/><path fill="#3b3344" d="M 136.785156 131.761719 L 136.785156 128.488281 L 131.253906 128.488281 L 131.253906 131.761719 C 128.042969 132.90625 125.722656 135.949219 125.722656 139.550781 L 125.722656 142.316406 C 125.722656 146.890625 129.445312 150.613281 134.019531 150.613281 C 135.542969 150.613281 136.785156 151.851562 136.785156 153.378906 L 136.785156 156.144531 C 136.785156 157.667969 135.542969 158.910156 134.019531 158.910156 C 132.492188 158.910156 131.253906 157.667969 131.253906 156.144531 L 131.253906 153.378906 L 125.722656 153.378906 L 125.722656 156.144531 C 125.722656 159.742188 128.042969 162.785156 131.253906 163.929688 L 131.253906 167.207031 L 136.785156 167.207031 L 136.785156 163.929688 C 139.996094 162.785156 142.316406 159.742188 142.316406 156.144531 L 142.316406 153.378906 C 142.316406 148.804688 138.59375 145.082031 134.019531 145.082031 C 132.492188 145.082031 131.253906 143.839844 131.253906 142.316406 L 131.253906 139.550781 C 131.253906 138.023438 132.492188 136.785156 134.019531 136.785156 C 135.542969 136.785156 136.785156 138.023438 136.785156 139.550781 L 136.785156 142.316406 L 142.316406 142.316406 L 142.316406 139.550781 C 142.316406 135.949219 139.996094 132.90625 136.785156 131.761719 Z M 136.785156 131.761719 " fill-opacity="1" fill-rule="nonzero"/><path fill="#3b3344" d="M 158.910156 131.761719 L 158.910156 128.488281 L 153.378906 128.488281 L 153.378906 131.761719 C 150.167969 132.90625 147.847656 135.949219 147.847656 139.550781 L 147.847656 142.316406 C 147.847656 146.890625 151.570312 150.613281 156.144531 150.613281 C 157.667969 150.613281 158.910156 151.851562 158.910156 153.378906 L 158.910156 156.144531 C 158.910156 157.667969 157.667969 158.910156 156.144531 158.910156 C 154.617188 158.910156 153.378906 157.667969 153.378906 156.144531 L 153.378906 153.378906 L 147.847656 153.378906 L 147.847656 156.144531 C 147.847656 159.742188 150.167969 162.785156 153.378906 163.929688 L 153.378906 167.207031 L 158.910156 167.207031 L 158.910156 163.929688 C 162.121094 162.785156 164.441406 159.742188 164.441406 156.144531 L 164.441406 153.378906 C 164.441406 148.804688 160.71875 145.082031 156.144531 145.082031 C 154.617188 145.082031 153.378906 143.839844 153.378906 142.316406 L 153.378906 139.550781 C 153.378906 138.023438 154.617188 136.785156 156.144531 136.785156 C 157.667969 136.785156 158.910156 138.023438 158.910156 139.550781 L 158.910156 142.316406 L 164.441406 142.316406 L 164.441406 139.550781 C 164.441406 135.949219 162.121094 132.90625 158.910156 131.761719 Z M 158.910156 131.761719 " fill-opacity="1" fill-rule="nonzero"/><path fill="#3b3344" d="M 134.574219 218.09375 L 151.160156 195.964844 L 155.585938 199.28125 L 138.996094 221.410156 Z M 134.574219 218.09375 " fill-opacity="1" fill-rule="nonzero"/><path fill="#3b3344" d="M 147.847656 211.457031 L 153.378906 211.457031 L 153.378906 216.988281 L 147.847656 216.988281 Z M 147.847656 211.457031 " fill-opacity="1" fill-rule="nonzero"/><path fill="#3b3344" d="M 134.019531 200.394531 L 139.550781 200.394531 L 139.550781 205.925781 L 134.019531 205.925781 Z M 134.019531 200.394531 " fill-opacity="1" fill-rule="nonzero"/><path fill="#3b3344" d="M 117.425781 239.113281 L 128.488281 239.113281 L 128.488281 244.644531 L 117.425781 244.644531 Z M 117.425781 239.113281 " fill-opacity="1" fill-rule="nonzero"/><path fill="#3b3344" d="M 117.425781 250.175781 L 145.082031 250.175781 L 145.082031 255.707031 L 117.425781 255.707031 Z M 117.425781 250.175781 " fill-opacity="1" fill-rule="nonzero"/><path fill="#3b3344" d="M 150.613281 250.175781 L 172.738281 250.175781 L 172.738281 255.707031 L 150.613281 255.707031 Z M 150.613281 250.175781 " fill-opacity="1" fill-rule="nonzero"/><path fill="#3b3344" d="M 134.019531 239.113281 L 172.738281 239.113281 L 172.738281 244.644531 L 134.019531 244.644531 Z M 134.019531 239.113281 " fill-opacity="1" fill-rule="nonzero"/><path fill="#3b3344" d="M 117.425781 261.238281 L 131.253906 261.238281 L 131.253906 266.769531 L 117.425781 266.769531 Z M 117.425781 261.238281 " fill-opacity="1" fill-rule="nonzero"/><path fill="#3b3344" d="M 136.785156 261.238281 L 158.910156 261.238281 L 158.910156 266.769531 L 136.785156 266.769531 Z M 136.785156 261.238281 " fill-opacity="1" fill-rule="nonzero"/><path fill="#3b3344" d="M 164.441406 261.238281 L 172.738281 261.238281 L 172.738281 266.769531 L 164.441406 266.769531 Z M 164.441406 261.238281 " fill-opacity="1" fill-rule="nonzero"/><path fill="#3b3344" d="M 194.863281 230.816406 L 222.519531 230.816406 L 222.519531 236.347656 L 194.863281 236.347656 Z M 194.863281 230.816406 " fill-opacity="1" fill-rule="nonzero"/><path fill="#3b3344" d="M 228.050781 230.816406 L 255.707031 230.816406 L 255.707031 236.347656 L 228.050781 236.347656 Z M 228.050781 230.816406 " fill-opacity="1" fill-rule="nonzero"/><path fill="#3b3344" d="M 200.394531 241.878906 L 216.988281 241.878906 L 216.988281 247.410156 L 200.394531 247.410156 Z M 200.394531 241.878906 " fill-opacity="1" fill-rule="nonzero"/><path fill="#3b3344" d="M 233.582031 241.878906 L 250.175781 241.878906 L 250.175781 247.410156 L 233.582031 247.410156 Z M 233.582031 241.878906 " fill-opacity="1" fill-rule="nonzero"/><path fill="#3b3344" d="M 200.394531 252.941406 L 216.988281 252.941406 L 216.988281 258.472656 L 200.394531 258.472656 Z M 200.394531 252.941406 " fill-opacity="1" fill-rule="nonzero"/><path fill="#3b3344" d="M 233.582031 252.941406 L 250.175781 252.941406 L 250.175781 258.472656 L 233.582031 258.472656 Z M 233.582031 252.941406 " fill-opacity="1" fill-rule="nonzero"/></svg>