<svg xmlns="http://www.w3.org/2000/svg" viewBox="0 0 64 64" id="video-learning"><g><rect width="50" height="50" x="7" y="7" fill="#ccd3eb" rx="2" ry="2"></rect><path fill="#f5f7ff" d="M54,7V34A20.06,20.06,0,0,1,34,54H13a6,6,0,0,1-6-6V9A2,2,0,0,1,9,7Z"></path><path fill="#647499" d="M17,50a1,1,0,0,1-.55.89l-4,2A1,1,0,0,1,12,53a1,1,0,0,1-.53-.15A1,1,0,0,1,11,52V48a1,1,0,0,1,1.45-.89l4,2A1,1,0,0,1,17,50Z"></path><path fill="#96a1c3" d="M39 49v2H21a1 1 0 0 1 0-2zM53 50a1 1 0 0 1-1 1H41V49H52A1 1 0 0 1 53 50z"></path><path fill="#647499" d="M41,49v2a1,1,0,0,1-2,0V49a1,1,0,0,1,2,0Z"></path><polygon fill="#96a1c3" points="41 29.6 41 37 32 40 23 37 23 29.6 32 32 41 29.6"></polygon><polygon fill="#ccd3eb" points="41 29.6 41 37 32 40 23 37 23 29.6 32 32 39 30.13 41 29.6"></polygon><polygon fill="#96a1c3" points="41 29.6 41 33 32 36 23 33 23 29.6 32 32 39 30.13 41 29.6"></polygon><path fill="#0074ff" d="M9,7H55a2,2,0,0,1,2,2v6a0,0,0,0,1,0,0H7a0,0,0,0,1,0,0V9A2,2,0,0,1,9,7Z"></path><path fill="#fe9661" d="M45,39a1,1,0,0,1-1-1V27a1,1,0,0,1,2,0V38A1,1,0,0,1,45,39Z"></path><path fill="#ccd3eb" d="M47,27a1.26,1.26,0,0,1-.93,1.22L41,29.6,32,32l-9-2.4-5.07-1.35A1.26,1.26,0,0,1,18,25.8L32,23l14,2.8A1.25,1.25,0,0,1,47,27Z"></path><circle cx="11" cy="11" r="1" fill="#f5f7ff"></circle><circle cx="15" cy="11" r="1" fill="#f5f7ff"></circle><circle cx="19" cy="11" r="1" fill="#f5f7ff"></circle><path fill="#033c59" d="M7,38a1,1,0,0,0,1-1V36a1,1,0,0,0-2,0v1A1,1,0,0,0,7,38Z"></path><path fill="#033c59" d="M55,6H9A3,3,0,0,0,6,9V32a1,1,0,0,0,2,0V16H56V55a1,1,0,0,1-1,1H9a1,1,0,0,1-1-1V41a1,1,0,0,0-2,0V55a3,3,0,0,0,3,3H55a3,3,0,0,0,3-3V9A3,3,0,0,0,55,6Zm1,8H8V9A1,1,0,0,1,9,8H55a1,1,0,0,1,1,1Z"></path><path fill="#033c59" d="M46.19,24.82,32.2,22a.9.9,0,0,0-.4,0l-14,2.8a2.26,2.26,0,0,0-.14,4.4L22,30.37V37a1,1,0,0,0,.68,1l9,3a1,1,0,0,0,.64,0l9-3A1,1,0,0,0,42,37V30.37l2-.53V40a1,1,0,0,0,2,0V29.3l.33-.09a2.26,2.26,0,0,0-.14-4.39ZM40,36.28,32,39l-8-2.67V30.9L31.74,33a1.14,1.14,0,0,0,.52,0L40,30.9Zm5.81-9-5.06,1.35h0L32,31l-8.74-2.33h0l-5.06-1.34A.28.28,0,0,1,18,27a.26.26,0,0,1,.21-.25L32,24l13.79,2.76A.26.26,0,0,1,46,27,.26.26,0,0,1,45.81,27.28Z"></path></g></svg>